<svg width="52" height="57" viewBox="0 0 52 57" fill="none" xmlns="http://www.w3.org/2000/svg">
<path d="M8.46774 5.53512C8.19481 5.86666 7.95395 6.125 7.74515 6.31015C7.47695 6.5629 7.16203 6.73772 6.80038 6.83462C6.39052 6.94444 6.05039 6.88054 5.77999 6.64291C5.55868 6.4438 5.41734 6.22973 5.35597 6.00069C5.30106 5.79576 5.30524 5.59437 5.36851 5.39654C5.44061 5.18342 5.56297 4.98913 5.7356 4.81367L8.2227 2.30611C8.32064 2.18943 8.45797 2.07511 8.6347 1.96316C8.81142 1.8512 8.99622 1.76938 9.1891 1.7177C9.62307 1.60142 10.0154 1.61904 10.3661 1.77056C10.7168 1.92208 10.9503 2.21482 11.0665 2.64879L14.0075 13.6246C14.1303 14.0827 14.0716 14.4667 13.8316 14.7765C13.5949 15.0983 13.2595 15.3174 12.8255 15.4336C12.3915 15.5499 11.9855 15.5295 11.6075 15.3724C11.2327 15.2273 10.984 14.9258 10.8612 14.4677L8.46774 5.53512Z" fill="#84D6FF"/>
<path d="M29.5463 11.9621C29.9956 11.9621 30.3263 12.0744 30.5385 12.299C30.7506 12.5237 30.8567 12.8107 30.8567 13.1602C30.8567 13.4597 30.7506 13.7218 30.5385 13.9464C30.3388 14.1835 30.0081 14.3021 29.5463 14.3021H22.077C21.6028 14.3021 21.2284 14.1523 20.9538 13.8528C20.6793 13.5533 20.542 13.1976 20.542 12.7858C20.542 12.4862 20.6543 12.1618 20.879 11.8123C21.4281 11.0635 22.5014 9.97776 24.0988 8.55504C25.2345 7.54416 26.0769 6.708 26.626 6.04656C27.1876 5.38512 27.4684 4.75488 27.4684 4.15584C27.4684 3.63168 27.3623 3.20736 27.1502 2.88288C26.938 2.54592 26.5074 2.37744 25.8585 2.37744C25.3094 2.37744 24.8476 2.51472 24.4732 2.78928C24.1113 3.05136 23.9303 3.432 23.9303 3.9312C23.9303 4.23072 23.7993 4.48032 23.5372 4.68C23.2876 4.87968 22.9319 4.97952 22.4702 4.97952C22.0334 4.97952 21.6652 4.87344 21.3657 4.66128C21.0786 4.43664 20.9351 4.0872 20.9351 3.61296C20.9351 2.9016 21.1598 2.27136 21.609 1.72224C22.0583 1.17312 22.6511 0.7488 23.3874 0.44928C24.1362 0.14976 24.9287 0 25.7649 0C27.2874 0 28.4793 0.36192 29.3404 1.08576C30.2015 1.8096 30.6321 2.78304 30.6321 4.00608C30.6321 4.69248 30.4761 5.34144 30.1641 5.95296C29.8521 6.56448 29.4465 7.1448 28.9473 7.69392C28.4481 8.23056 27.7866 8.87328 26.963 9.62208L26.5137 10.0339C25.6401 10.8077 24.9786 11.4504 24.5294 11.9621H29.5463Z" fill="#73EDB0"/>
<path d="M41.6033 13.4367C42.4592 13.6661 43.1204 13.6817 43.5869 13.4837C44.0687 13.2769 44.4032 12.8239 44.5906 12.1247L44.6729 11.8173C44.8345 11.2146 44.7321 10.7285 44.366 10.3591C44.0151 9.98081 43.4479 9.68671 42.6644 9.47675C42.2786 9.37339 42.0228 9.19502 41.8969 8.94164C41.7742 8.6762 41.75 8.40485 41.8243 8.12759C41.905 7.82623 42.0617 7.60333 42.2942 7.4589C42.5299 7.30242 42.8407 7.27586 43.2264 7.37923C44.5886 7.74422 45.4215 7.36015 45.7251 6.227C46.0255 5.10591 45.5248 4.37094 44.2228 4.02209C43.4875 3.82506 42.92 3.82157 42.5202 4.01161C42.1236 4.18961 41.8769 4.45942 41.78 4.82107C41.6863 5.17066 41.4778 5.41841 41.1545 5.56433C40.8432 5.71349 40.4404 5.72185 39.9462 5.58942C39.4399 5.45375 39.0997 5.25277 38.9255 4.98647C38.7667 4.71134 38.7503 4.33871 38.8762 3.86858C39.0119 3.36228 39.2999 2.89033 39.7401 2.45272C40.1804 2.01512 40.8227 1.71563 41.667 1.55425C42.5265 1.38405 43.5892 1.46852 44.855 1.80768C46.3859 2.2179 47.5199 2.83183 48.2569 3.64949C48.9939 4.46714 49.1993 5.48473 48.8731 6.70226C48.6599 7.49788 48.3637 8.09683 47.9846 8.49914C47.6175 8.90467 47.1437 9.17824 46.5631 9.31983C47.7567 10.1694 48.1694 11.2813 47.8012 12.6555L47.7188 12.9629C47.328 14.4215 46.5237 15.3495 45.3061 15.7468C44.1006 16.1473 42.6661 16.1247 41.0025 15.6789C39.785 15.3527 38.81 14.917 38.0774 14.3719C37.3449 13.8268 36.8476 13.2478 36.5855 12.6349C36.3386 12.0131 36.2895 11.425 36.438 10.8705C36.5543 10.4365 36.7544 10.1478 37.0384 10.0042C37.3256 9.8486 37.7283 9.84024 38.2467 9.97913C38.8615 10.1439 39.256 10.3594 39.4301 10.6257C39.6042 10.892 39.638 11.224 39.5314 11.6218C39.4409 11.9594 39.57 12.2976 39.9185 12.6364C40.2702 12.9633 40.8318 13.23 41.6033 13.4367Z" fill="#FF9CFD"/>
<g clip-path="url(#clip0_6906_167)">
<path fill-rule="evenodd" clip-rule="evenodd" d="M0.618164 16.1537C2.75858 16.3037 4.54652 15.7967 6.04328 14.7568C12.5514 16.6555 19.0339 18.5284 25.542 20.4012C25.1334 20.9341 24.694 21.4721 24.2803 22.005C16.3929 20.0701 8.50553 18.1145 0.618164 16.1537Z" fill="#E6E6E6"/>
<path fill-rule="evenodd" clip-rule="evenodd" d="M50.4659 16.1537C48.3255 16.3037 46.5375 15.7967 45.0408 14.7568C38.5582 16.6555 32.0501 18.5284 25.542 20.4012C25.9813 20.9341 26.39 21.4721 26.8344 22.005C34.6911 20.0753 42.5836 18.1145 50.471 16.1537H50.4659Z" fill="#E6E6E6"/>
<path fill-rule="evenodd" clip-rule="evenodd" d="M22.6424 20.3405L0.00195312 16.0361V50.9319L22.6424 55.2104V20.3405Z" fill="#ADB0FF"/>
<path fill-rule="evenodd" clip-rule="evenodd" d="M28.4458 20.3405L51.0862 16.0361V50.9319L28.4458 55.2104V20.3405Z" fill="#ADB0FF"/>
<path fill-rule="evenodd" clip-rule="evenodd" d="M22.6401 20.3389C24.5762 21.3477 26.5123 21.2598 28.4484 20.3389V55.2967C26.5123 56.3366 24.5762 56.3935 22.6401 55.2967V20.3389Z" fill="#8C90FF"/>
<path fill-rule="evenodd" clip-rule="evenodd" d="M23.6366 19.8638L9.21045 14.5195V15.6784L23.6366 19.8638Z" fill="#D8D8D8"/>
<path fill-rule="evenodd" clip-rule="evenodd" d="M27.4473 19.8638L41.8734 14.5195V15.6784L27.4473 19.8638Z" fill="#D8D8D8"/>
<path fill-rule="evenodd" clip-rule="evenodd" d="M25.5439 19.2705C27.0407 19.2705 28.2411 19.6844 28.2411 20.1604C28.2411 20.6674 27.0407 21.0502 25.5439 21.0502C24.0472 21.0502 22.8467 20.6622 22.8467 20.1604C22.8467 19.6844 24.0472 19.2705 25.5439 19.2705Z" fill="#8C90FF"/>
<path fill-rule="evenodd" clip-rule="evenodd" d="M32.3784 30.3744C32.3784 29.2257 33.2002 28.2415 34.3304 28.0365L44.3264 26.2236C45.7845 25.9592 47.1264 27.0795 47.1264 28.5615V29.9437C47.1264 31.0908 46.3067 32.0742 45.1783 32.2808L35.1824 34.1113C33.723 34.3785 32.3784 33.2577 32.3784 31.7741V30.3744Z" fill="#D8D9FF"/>
</g>
<defs>
<clipPath id="clip0_6906_167">
<rect width="51.084" height="41.58" fill="white" transform="translate(0 14.5205)"/>
</clipPath>
</defs>
</svg>
