<svg width="48" height="49" viewBox="0 0 48 49" fill="none" xmlns="http://www.w3.org/2000/svg">
<path d="M35.0083 7.41626H16.4448V17.9331H35.0083V7.41626Z" fill="#A82000"/>
<path d="M35.0083 17.9331H16.4448V48.9999H35.0083V17.9331Z" fill="#FF6536"/>
<path d="M16.4448 0.351318H0V9.47913H16.4448V0.351318Z" fill="#FFBC45"/>
<path d="M16.4448 39.8721H0V48.9999H16.4448V39.8721Z" fill="#FFBC45"/>
<path d="M16.4448 35.8208H0V39.8707H16.4448V35.8208Z" fill="#FFEDCF"/>
<path d="M16.4448 13.5305H0V35.8209H16.4448V13.5305Z" fill="#FFBC45"/>
<path d="M16.4448 9.47925H0V13.5292H16.4448V9.47925Z" fill="#FFEDCF"/>
<path d="M47.147 0H35.0083V9.12782H47.147V0Z" fill="#256DD6"/>
<path d="M47.147 39.5195H35.0083V48.6473H47.147V39.5195Z" fill="#256DD6"/>
<path d="M47.147 9.12793H35.0083V39.5195H47.147V9.12793Z" fill="#4D91F6"/>
</svg>
