<svg width="52" height="49" viewBox="0 0 52 49" fill="none" xmlns="http://www.w3.org/2000/svg">
<g clip-path="url(#clip0_6906_1411)">
<path d="M34.9121 7.41602H16.3486V17.9328H34.9121V7.41602Z" fill="#A82000"/>
<path d="M34.9121 17.9326H16.3486V48.9994H34.9121V17.9326Z" fill="#FF6536"/>
<path d="M16.4448 0.351562H0V9.47938H16.4448V0.351562Z" fill="#FFBC45"/>
<path d="M16.4448 39.8721H0V48.9999H16.4448V39.8721Z" fill="#FFBC45"/>
<path d="M16.4448 35.8213H0V39.8712H16.4448V35.8213Z" fill="#FFEDCF"/>
<path d="M16.4448 13.5303H0V35.8207H16.4448V13.5303Z" fill="#FFBC45"/>
<path d="M16.4448 9.47949H0V13.5294H16.4448V9.47949Z" fill="#FFEDCF"/>
<path d="M51.9986 0H39.8599V9.12782H51.9986V0Z" fill="#256DD6"/>
<path d="M51.9986 39.5195H39.8599V48.6473H51.9986V39.5195Z" fill="#256DD6"/>
<path d="M51.9986 9.12793H39.8599V39.5195H51.9986V9.12793Z" fill="#4D91F6"/>
</g>
<defs>
<clipPath id="clip0_6906_1411">
<rect width="52" height="49" fill="white"/>
</clipPath>
</defs>
</svg>
