<svg width="56" height="56" viewBox="0 0 56 56" fill="none" xmlns="http://www.w3.org/2000/svg">
<path d="M17.3395 5.29172L16.908 6.21361L15.6326 8.93935L15.2068 9.85554C15.0776 10.1255 14.84 10.3193 14.5491 10.384C14.4465 10.4106 14.3439 10.4296 14.2393 10.4486H14.2336C13.8915 10.5132 13.5569 10.5455 13.2281 10.5455C9.75343 10.5455 6.90413 7.34838 4.55854 4.72528C3.5017 3.53918 2.50188 2.42341 1.599 1.74102C1.23214 1.46921 1.10859 0.9731 1.30247 0.560626C1.49445 0.148153 1.95255 -0.0780426 2.39733 0.0246007C3.4998 0.288812 5.00143 0.340133 6.5867 0.391455C10.4358 0.526412 15.2106 0.693682 17.178 4.16834H17.1837C17.235 4.25958 17.2863 4.34892 17.3319 4.44586C17.4612 4.71007 17.4669 5.0199 17.3376 5.28982L17.3395 5.29172Z" fill="#F2C396"/>
<path d="M24.4269 14.652L23.8472 14.4144L24.1247 14.3555C24.1703 14.4334 24.2349 14.498 24.3053 14.5551C24.3433 14.5874 24.3832 14.6197 24.4269 14.652Z" fill="#64737A"/>
<path d="M55.6163 26.007C55.2817 26.7616 54.5727 27.2064 53.7915 27.2064C53.6166 27.2064 53.4379 27.1873 53.2631 27.136C52.9932 27.0657 51.0581 26.5164 48.2545 25.6078H48.2488C47.4238 25.3379 46.5285 25.0413 45.5743 24.7125C39.5792 22.6691 31.4248 19.4967 26.1387 15.9137C25.5266 15.4955 24.9526 15.0755 24.4241 14.6497C24.3785 14.6174 24.3405 14.585 24.3025 14.5527C24.2322 14.4938 24.1675 14.4311 24.1219 14.3531C23.928 14.0756 23.89 13.7145 24.0383 13.3932L24.4317 12.5626L25.3023 10.7131L25.6882 9.88246C25.8744 9.4833 26.3192 9.2628 26.745 9.34074C26.7906 9.34644 26.842 9.35974 26.8876 9.37305C37.2983 11.4544 54.1298 22.9752 54.9016 23.5093C55.7322 24.07 56.0287 25.0946 55.6163 26.0108V26.007Z" fill="#A46A44"/>
<path d="M26.8862 9.37041C26.8406 9.3571 26.7893 9.3438 26.7436 9.33809C26.3179 9.26016 25.8731 9.48065 25.6868 9.87982L25.3009 10.7105L24.4304 12.5599L24.0369 13.3906C23.8886 13.7137 23.9267 14.0749 24.1205 14.3505L23.843 14.4094L14.2383 10.4444C14.3409 10.4254 14.4455 10.4063 14.5481 10.3797C14.8389 10.3151 15.0765 10.1212 15.2058 9.85131L15.6316 8.93512L16.907 6.20938L17.3385 5.28749C17.4677 5.01757 17.4601 4.70774 17.3328 4.44353C17.2872 4.34659 17.2358 4.25725 17.1845 4.16602L26.8862 9.36851V9.37041Z" fill="#FFC10C"/>
<path d="M24.4245 14.651L23.8447 14.4134L24.1222 14.3545C24.1679 14.4324 24.2325 14.4971 24.3028 14.5541C24.3408 14.5864 24.3808 14.6187 24.4245 14.651Z" fill="#64737A"/>
<path d="M13.0913 34.7506C12.331 35.6915 11.2475 36.2845 10.0424 36.4138C9.88084 36.4271 9.71357 36.4404 9.552 36.4404C8.51986 36.4404 7.52765 36.0868 6.7084 35.4292C4.76198 33.8629 4.45785 31.0003 6.03172 29.0539C6.79204 28.1073 7.87549 27.5199 9.0806 27.3907C10.2857 27.2614 11.4661 27.6093 12.407 28.3696C13.3555 29.1299 13.9409 30.2134 14.0702 31.4185C14.1995 32.6236 13.8516 33.8097 13.0913 34.7506Z" fill="#FFC008"/>
<path d="M37.0428 27.7506C36.6113 28.8777 35.7597 29.7749 34.6516 30.2653C34.0585 30.5295 33.4332 30.6645 32.8078 30.6645C32.2604 30.6645 31.7053 30.5618 31.1826 30.3623C28.8427 29.4594 27.6756 26.8363 28.5728 24.4964C29.4681 22.1622 32.0931 20.9894 34.433 21.8866C35.5678 22.3257 36.4573 23.1696 36.9534 24.2778C37.4439 25.386 37.4762 26.6177 37.0447 27.7525L37.0428 27.7506Z" fill="#F0524F"/>
<path d="M24.448 27.0227C24.0165 28.1499 23.165 29.047 22.0625 29.5374C21.4695 29.8017 20.8441 29.9366 20.2187 29.9366C19.6637 29.9366 19.1163 29.834 18.5879 29.6344C17.4607 29.1953 16.5635 28.3514 16.0674 27.2432C15.577 26.135 15.5447 24.9033 15.9781 23.7685C16.4095 22.6413 17.2611 21.7442 18.3693 21.2481C19.4774 20.7577 20.7091 20.7253 21.8363 21.1587C22.9711 21.5978 23.8664 22.4418 24.3568 23.5499C24.8529 24.6581 24.8852 25.8898 24.4461 27.0246L24.448 27.0227Z" fill="#78BDDE"/>
<path d="M45.8149 35.6677C45.3892 37.8328 43.4884 39.342 41.3614 39.342C41.0706 39.342 40.7816 39.3154 40.4908 39.2584C38.3258 38.8402 36.8223 36.9375 36.8223 34.8105C36.8223 34.5197 36.8489 34.2307 36.9059 33.9399C37.383 31.4841 39.7742 29.8722 42.2243 30.3493C44.6802 30.8264 46.2921 33.2119 45.8149 35.6677Z" fill="#8BC14D"/>
<path d="M50.5611 32.4878C50.3748 30.7353 49.911 29.0132 49.1944 27.3766C49.1811 27.35 49.1754 27.331 49.1621 27.3063L48.2535 25.6108H48.2478C47.4229 25.3408 46.5276 25.0443 45.5734 24.7155C39.5783 22.6721 31.4238 19.4997 26.1377 15.9167C25.5257 15.4985 24.9516 15.0784 24.4232 14.6526L23.8434 14.415L21.4655 14.9054C19.5191 15.202 18.3387 15.5897 18.1068 15.6734C6.63171 18.8477 -0.942983 28.1806 0.094854 37.8766C0.294438 39.785 0.82286 41.6478 1.65541 43.4003C2.44234 45.0445 3.89265 46.2877 5.62618 46.8047C7.3217 47.3084 9.12555 47.0822 10.5835 46.1926C15.6244 43.1114 18.2874 43.2521 19.6275 43.9174C21.2907 44.729 21.5036 46.5728 21.5036 46.5918C21.6461 47.9261 21.0208 49.0153 20.4657 49.7053C19.5628 50.8211 19.3766 52.3284 19.9753 53.6437C20.5741 54.9458 21.8381 55.7764 23.2694 55.8221C23.5659 55.8278 23.8682 55.8354 24.1723 55.8354C25.2805 55.8354 26.4019 55.7764 27.512 55.6548C34.2161 54.9401 40.3006 52.1668 44.6458 47.8349C49.0481 43.446 51.1503 37.9983 50.563 32.4859L50.5611 32.4878ZM13.0906 34.7498C12.3303 35.6907 11.2468 36.2837 10.0417 36.413C9.88017 36.4263 9.7129 36.4396 9.55133 36.4396C8.5192 36.4396 7.52698 36.0861 6.70774 35.4284C4.76132 33.8621 4.45719 30.9995 6.03105 29.0531C6.79137 28.1065 7.87483 27.5192 9.07994 27.3899C10.285 27.2606 11.4654 27.6085 12.4063 28.3688C13.3548 29.1291 13.9403 30.2126 14.0695 31.4177C14.1988 32.6228 13.8509 33.8089 13.0906 34.7498ZM24.4479 27.0211C24.0164 28.1483 23.1649 29.0455 22.0624 29.5359C21.4693 29.8001 20.844 29.9351 20.2186 29.9351C19.6636 29.9351 19.1162 29.8324 18.5877 29.6328C17.4606 29.1938 16.5634 28.3498 16.0673 27.2416C15.5769 26.1335 15.5446 24.9018 15.9779 23.767C16.4094 22.6398 17.261 21.7426 18.3691 21.2465C19.4773 20.7561 20.709 20.7238 21.8362 21.1572C22.971 21.5963 23.8663 22.4402 24.3567 23.5484C24.8528 24.6566 24.8851 25.8883 24.446 27.023L24.4479 27.0211ZM28.5745 24.4931C29.4698 22.1589 32.0948 20.9861 34.4347 21.8833C35.5695 22.3224 36.4591 23.1663 36.9552 24.2745C37.4456 25.3827 37.4779 26.6144 37.0464 27.7492C36.6149 28.8763 35.7634 29.7735 34.6552 30.2639C34.0621 30.5281 33.4368 30.6631 32.8114 30.6631C32.264 30.6631 31.709 30.5604 31.1862 30.3609C28.8464 29.458 27.6793 26.8349 28.5764 24.495L28.5745 24.4931ZM33.1954 48.7568H33.1175C31.9047 48.7302 30.7719 48.2417 29.926 47.3711C29.0878 46.5005 28.6373 45.3544 28.6563 44.1417C28.6753 42.9289 29.1714 41.7961 30.042 40.9578C30.9125 40.1139 32.0473 39.6501 33.2714 39.6824C34.4841 39.7014 35.6113 40.1975 36.4553 41.0681C37.2992 41.9386 37.7516 43.0848 37.7307 44.2975C37.6851 46.7724 35.655 48.7587 33.1935 48.7587L33.1954 48.7568ZM45.8167 35.666C45.3909 37.831 43.4901 39.3402 41.3631 39.3402C41.0723 39.3402 40.7834 39.3136 40.4926 39.2566C38.3275 38.8384 36.824 36.9357 36.824 34.8087C36.824 34.5179 36.8506 34.229 36.9076 33.9382C37.3847 31.4823 39.776 29.8704 42.2261 30.3475C44.6819 30.8246 46.2938 33.2101 45.8167 35.666Z" fill="#FFE9C9"/>
<path d="M37.7317 44.2955C37.6861 46.7703 35.656 48.7567 33.1945 48.7567H33.1165C31.9038 48.7301 30.771 48.2415 29.9251 47.371C29.0868 46.5004 28.6364 45.3542 28.6554 44.1415C28.6744 42.9288 29.1705 41.7959 30.041 40.9577C30.9116 40.1137 32.0464 39.6499 33.2705 39.6822C34.4832 39.7013 35.6104 40.1974 36.4543 41.0679C37.2983 41.9385 37.7507 43.0847 37.7298 44.2974L37.7317 44.2955Z" fill="#5B9CEE"/>
</svg>
