<svg width="24" height="24" viewBox="0 0 24 24" fill="none" xmlns="http://www.w3.org/2000/svg">
<path fill-rule="evenodd" clip-rule="evenodd" d="M7.59757 3.80647L3.08797 8.11207C3.08797 8.11207 2.99557 8.02807 2.85997 7.87447C2.55157 7.52407 2.02357 6.81727 1.87477 5.95327C1.73917 5.16847 1.91677 4.25287 2.85637 3.35527C3.79597 2.45887 4.71757 2.32327 5.49637 2.49487C6.35197 2.68327 7.03357 3.24367 7.36957 3.56767C7.51717 3.70927 7.59757 3.80647 7.59757 3.80647ZM16.4008 3.80647L20.9104 8.11207C20.9104 8.11207 21.0028 8.02807 21.1384 7.87447C21.4468 7.52407 21.9748 6.81727 22.1236 5.95327C22.2592 5.16847 22.0816 4.25287 21.142 3.35527C20.2024 2.45887 19.2808 2.32327 18.502 2.49487C17.6464 2.68327 16.9648 3.24367 16.6288 3.56767C16.4812 3.70927 16.4008 3.80647 16.4008 3.80647Z" fill="#171719"/>
<path d="M4.19925 19.7999C3.86731 20.1319 3.86731 20.6701 4.19925 21.002C4.5312 21.334 5.06939 21.334 5.40133 21.002L4.80029 20.401L4.19925 19.7999ZM7.20029 18.001L6.59925 17.3999L4.19925 19.7999L4.80029 20.401L5.40133 21.002L7.80133 18.602L7.20029 18.001Z" fill="#171719"/>
<path d="M19.8017 19.7999C20.1337 20.1319 20.1337 20.6701 19.8017 21.002C19.4698 21.334 18.9316 21.334 18.5996 21.002L19.2007 20.401L19.8017 19.7999ZM16.8007 18.001L17.4017 17.3999L19.8017 19.7999L19.2007 20.401L18.5996 21.002L16.1996 18.602L16.8007 18.001Z" fill="#171719"/>
<circle cx="12.0006" cy="12.0006" r="7.55" stroke="#171719" stroke-width="1.7"/>
<path d="M12.0005 8.40039V12.0004H15.6005" stroke="#171719" stroke-width="1.7" stroke-linecap="round" stroke-linejoin="round"/>
</svg>
