<svg width="24" height="24" viewBox="0 0 24 24" fill="none" xmlns="http://www.w3.org/2000/svg">
<path d="M17 3H7C6.46957 3 5.96086 3.21503 5.58579 3.59778C5.21071 3.98053 5 4.49966 5 5.04095V20.4889C5.00003 20.5783 5.02305 20.666 5.06676 20.7435C5.11047 20.8209 5.17334 20.8852 5.24907 20.9301C5.32481 20.9749 5.41075 20.9987 5.49831 20.999C5.58587 20.9993 5.67197 20.9761 5.748 20.9318L11.008 17.8653C11.3101 17.6891 11.6521 17.5965 12 17.5965C12.3479 17.5965 12.6899 17.6891 12.992 17.8653L18.252 20.9328C18.3281 20.9772 18.4143 21.0003 18.5019 21C18.5896 20.9996 18.6756 20.9758 18.7514 20.9308C18.8271 20.8859 18.89 20.8214 18.9336 20.7438C18.9773 20.6663 19.0001 20.5783 19 20.4889V5.04095C19 4.49966 18.7893 3.98053 18.4142 3.59778C18.0391 3.21503 17.5304 3 17 3Z" fill="#4DE5A5" stroke="#4DE5A5" stroke-width="1.5" stroke-linecap="round" stroke-linejoin="round"/>
</svg>
