<svg width="24" height="24" viewBox="0 0 24 24" fill="none" xmlns="http://www.w3.org/2000/svg">
<path d="M12 13V9M21 6L19 4M10 2H14M12 21C9.87827 21 7.84344 20.1571 6.34315 18.6569C4.84285 17.1566 4 15.1217 4 13C4 10.8783 4.84285 8.84344 6.34315 7.34315C7.84344 5.84285 9.87827 5 12 5C14.1217 5 16.1566 5.84285 17.6569 7.34315C19.1571 8.84344 20 10.8783 20 13C20 15.1217 19.1571 17.1566 17.6569 18.6569C16.1566 20.1571 14.1217 21 12 21Z" stroke="#171719" stroke-width="1.5" stroke-linecap="round" stroke-linejoin="round"/>
<path d="M12 13V9V13ZM21 6L19 4L21 6ZM10 2H14H10ZM12 21C9.87827 21 7.84344 20.1571 6.34315 18.6569C4.84285 17.1566 4 15.1217 4 13C4 10.8783 4.84285 8.84344 6.34315 7.34315C7.84344 5.84285 9.87827 5 12 5C14.1217 5 16.1566 5.84285 17.6569 7.34315C19.1571 8.84344 20 10.8783 20 13C20 15.1217 19.1571 17.1566 17.6569 18.6569C16.1566 20.1571 14.1217 21 12 21Z" fill="#4DE5A5"/>
<path d="M12 13V9M21 6L19 4M10 2H14M12 21C9.87827 21 7.84344 20.1571 6.34315 18.6569C4.84285 17.1566 4 15.1217 4 13C4 10.8783 4.84285 8.84344 6.34315 7.34315C7.84344 5.84285 9.87827 5 12 5C14.1217 5 16.1566 5.84285 17.6569 7.34315C19.1571 8.84344 20 10.8783 20 13C20 15.1217 19.1571 17.1566 17.6569 18.6569C16.1566 20.1571 14.1217 21 12 21Z" stroke="#171719" stroke-width="1.7" stroke-linecap="round" stroke-linejoin="round"/>
</svg>
