<svg width="24" height="24" viewBox="0 0 24 24" fill="none" xmlns="http://www.w3.org/2000/svg">
<path d="M9.29883 17.4004V10.2004V17.4004ZM20.0988 16.5004V7.50039V16.5004ZM9.29883 10.2004V6.60039L20.0988 3.90039V7.50039M9.29883 10.2004L20.0988 7.50039L9.29883 10.2004Z" fill="#4DE5A5"/>
<path d="M9.29883 17.4004V10.2004M9.29883 10.2004V6.60039L20.0988 3.90039V7.50039M9.29883 10.2004L20.0988 7.50039M20.0988 16.5004V7.50039" stroke="#171719" stroke-width="1.6" stroke-linecap="round" stroke-linejoin="round"/>
<path d="M6.60039 20.1002C8.09156 20.1002 9.30039 18.8914 9.30039 17.4002C9.30039 15.909 8.09156 14.7002 6.60039 14.7002C5.10922 14.7002 3.90039 15.909 3.90039 17.4002C3.90039 18.8914 5.10922 20.1002 6.60039 20.1002Z" fill="#4DE5A5" stroke="#171719" stroke-width="1.6" stroke-linecap="round" stroke-linejoin="round"/>
<path d="M17.3992 19.1998C18.8904 19.1998 20.0992 17.991 20.0992 16.4998C20.0992 15.0086 18.8904 13.7998 17.3992 13.7998C15.908 13.7998 14.6992 15.0086 14.6992 16.4998C14.6992 17.991 15.908 19.1998 17.3992 19.1998Z" fill="#4DE5A5" stroke="#171719" stroke-width="1.6" stroke-linecap="round" stroke-linejoin="round"/>
<path d="M9.30078 17.4004V10.2004M9.30078 10.2004V6.60039L20.1008 3.90039V7.50039M9.30078 10.2004L20.1008 7.50039M20.1008 16.5004V7.50039" stroke="#171719" stroke-width="1.6" stroke-linecap="round" stroke-linejoin="round"/>
</svg>
