<svg width="24" height="24" viewBox="0 0 24 24" fill="none" xmlns="http://www.w3.org/2000/svg">
<path fill-rule="evenodd" clip-rule="evenodd" d="M7.59744 3.80598L3.08784 8.11158C3.08784 8.11158 2.99545 8.02758 2.85985 7.87398C2.55145 7.52358 2.02344 6.81678 1.87464 5.95278C1.73904 5.16798 1.91665 4.25238 2.85624 3.35478C3.79584 2.45838 4.71744 2.32278 5.49624 2.49438C6.35184 2.68278 7.03344 3.24318 7.36944 3.56718C7.51705 3.70878 7.59744 3.80598 7.59744 3.80598ZM16.4006 3.80598L20.9102 8.11158C20.9102 8.11158 21.0026 8.02758 21.1382 7.87398C21.4466 7.52358 21.9746 6.81678 22.1234 5.95278C22.259 5.16798 22.0814 4.25238 21.1418 3.35478C20.2022 2.45838 19.2806 2.32278 18.5018 2.49438C17.6462 2.68278 16.9646 3.24318 16.6286 3.56718C16.481 3.70878 16.4006 3.80598 16.4006 3.80598Z" fill="#171719"/>
<path d="M4.19931 19.7994C3.86737 20.1314 3.86737 20.6696 4.19931 21.0015C4.53126 21.3335 5.06945 21.3335 5.40139 21.0015L4.80035 20.4005L4.19931 19.7994ZM7.20035 18.0005L6.59931 17.3994L4.19931 19.7994L4.80035 20.4005L5.40139 21.0015L7.80139 18.6015L7.20035 18.0005Z" fill="#171719"/>
<path d="M19.8014 19.7994C20.1334 20.1314 20.1334 20.6696 19.8014 21.0015C19.4695 21.3335 18.9313 21.3335 18.5993 21.0015L19.2004 20.4005L19.8014 19.7994ZM16.8004 18.0005L17.4014 17.3994L19.8014 19.7994L19.2004 20.4005L18.5993 21.0015L16.1993 18.6015L16.8004 18.0005Z" fill="#171719"/>
<circle cx="12.0003" cy="12.0006" r="7.55" fill="#4DE5A5" stroke="#171719" stroke-width="1.7"/>
<path d="M12.0004 8.40039V12.0004H15.6004" stroke="#171719" stroke-width="1.7" stroke-linecap="round" stroke-linejoin="round"/>
</svg>
