<svg width="248" height="74" viewBox="0 0 248 74" fill="none" xmlns="http://www.w3.org/2000/svg">
<path d="M27.3923 9.50586C12.2665 9.50586 0 21.8181 0 37.0004C0 45.1173 3.50316 52.4127 9.06893 57.4405C9.87651 58.1635 10.9569 58.6126 12.1246 58.6126H13.3469C17.232 58.6126 20.5606 61.0554 21.8702 64.4949C22.7869 59.6313 27.0431 55.9508 32.1614 55.9508H45.17C46.5997 55.9508 47.8765 55.2936 48.7168 54.2529C52.5146 49.5317 54.7846 43.529 54.7846 36.9894C54.7955 21.8181 42.529 9.50586 27.3923 9.50586Z" fill="#FDD000"/>
<path d="M22.9951 38.0088V39.6409H31.0382V43.2338H33.1117V38.0088H22.9951Z" fill="white"/>
<path d="M35.4801 32.1047H33.1119V28.9609H31.0384V37.527H33.1119V33.7478H35.4801V32.1047Z" fill="white"/>
<path d="M28.6922 33.1669C28.6922 32.3344 28.3648 31.5786 27.83 30.9761H29.4452V29.3549H25.3091V28.1719H23.2356V29.3549H19.2086V30.9761H20.7037C20.1689 31.5786 19.8524 32.3344 19.8524 33.1669C19.8524 35.2701 21.8277 36.8365 24.2723 36.8365C26.7169 36.8365 28.6922 35.2262 28.6922 33.1669ZM21.8496 33.145C21.8496 31.8853 22.93 31.0418 24.2723 31.0418C25.6146 31.0418 26.6951 31.8853 26.6951 33.145C26.6951 34.4047 25.6146 35.281 24.2723 35.281C22.93 35.281 21.8496 34.4157 21.8496 33.145Z" fill="white"/>
<path d="M16.9708 28.9609H14.9082V43.234H16.9708V28.9609Z" fill="white"/>
<path d="M11.7217 29.125H3.95149V30.7681H9.27716L3.35126 37.8115L4.91185 39.115L11.7217 30.7681V29.125Z" fill="white"/>
<path d="M7.58548 36.6719L11.3942 39.1146L12.4964 37.362L8.86233 35.1055L7.58548 36.6719Z" fill="white"/>
<path d="M39.7466 36.595L43.6754 39.1145L44.7667 37.3618L40.9143 34.9629L39.7466 36.595Z" fill="white"/>
<path d="M42.2571 28.917L35.5891 37.8883L37.2479 39.1152L43.785 30.0343L42.2571 28.917Z" fill="white"/>
<path d="M51.7952 32.4553H49.2524V28.9609H47.1898V43.234H49.2524V34.0984H51.7952V32.4553Z" fill="white"/>
<path d="M113.314 21.1109L97.4221 30.6348L99.0725 33.4093L114.964 23.8854L113.314 21.1109Z" fill="#3E3A39"/>
<path d="M111.777 27.0833L122.897 33.7762L123.061 33.8748L124.72 31.1034L114.92 25.1992L111.777 27.0833Z" fill="#3E3A39"/>
<path d="M112.65 30.6982H109.43V34.9265H96.2253V38.1579H125.964V34.9265H112.65V30.6982Z" fill="#3E3A39"/>
<path d="M99.4779 43.12H119.471V45.0698H99.4888V52.8581H122.68V49.9444H102.708V47.9946H122.69V40.1953H99.4779V43.12Z" fill="#3E3A39"/>
<path d="M131.574 29.2079L131.585 38.946H154.71V35.7146H134.804V32.4394H154.252V22.8984H131.574V26.1299H151.032V29.2079H131.574Z" fill="#3E3A39"/>
<path d="M128.049 44.6203H141.308V52.8906H144.528V44.6203H157.787V41.3779H128.049V44.6203Z" fill="#3E3A39"/>
<path d="M170.661 22.6274L158.938 39.2207L161.564 41.0898L173.287 24.4966L170.661 22.6274Z" fill="#3E3A39"/>
<path d="M177.835 40.2282L177.966 40.3815L180.454 38.3331L172.084 28.124L170.152 30.8625L177.835 40.2282Z" fill="#3E3A39"/>
<path d="M186.271 21.9678V26.7875H179.963V30.0299H186.271V32.5384H179.963V35.7698H186.271V44.763H189.491V21.9678H186.271Z" fill="#3E3A39"/>
<path d="M92.788 21.9238H89.5686V52.7374H92.788V21.9238Z" fill="#3E3A39"/>
<path d="M67.9276 36.7664H82.3222V33.535H67.9276V28.4414H82.3222V25.21H64.7846V46.4498H82.3222V43.2183H67.9276V36.7664Z" fill="#3E3A39"/>
<path d="M169.923 42.5615H166.703V52.8583H189.687V49.6269H169.923V42.5615Z" fill="#3E3A39"/>
<rect x="199.686" y="22.5" width="48" height="29" rx="14.5" fill="#C0A9FF"/>
<path d="M220.309 30.79C220.749 30.79 221.049 30.87 221.209 31.03C221.379 31.19 221.464 31.485 221.464 31.915V33.295C221.464 34.215 221.419 35.04 221.329 35.77C221.249 36.49 221.134 37.195 220.984 37.885C220.934 38.085 220.824 38.23 220.654 38.32C220.484 38.4 220.289 38.415 220.069 38.365C219.889 38.335 219.739 38.26 219.619 38.14C219.509 38.02 219.474 37.86 219.514 37.66C219.654 36.95 219.764 36.245 219.844 35.545C219.924 34.845 219.964 34.08 219.964 33.25V32.41C219.964 32.2 219.859 32.095 219.649 32.095H212.614C212.424 32.095 212.289 32.035 212.209 31.915C212.129 31.785 212.089 31.63 212.089 31.45C212.089 31.27 212.129 31.115 212.209 30.985C212.289 30.855 212.424 30.79 212.614 30.79H220.309ZM215.914 35.185C216.114 35.185 216.289 35.235 216.439 35.335C216.589 35.435 216.664 35.595 216.664 35.815V40.21H222.634C222.814 40.21 222.944 40.275 223.024 40.405C223.114 40.525 223.159 40.67 223.159 40.84C223.159 41.01 223.114 41.16 223.024 41.29C222.944 41.42 222.814 41.485 222.634 41.485H211.084C210.904 41.485 210.769 41.42 210.679 41.29C210.599 41.16 210.559 41.01 210.559 40.84C210.559 40.67 210.599 40.525 210.679 40.405C210.769 40.275 210.904 40.21 211.084 40.21H215.179V35.815C215.179 35.595 215.254 35.435 215.404 35.335C215.554 35.235 215.724 35.185 215.914 35.185ZM234.516 30.295C234.686 30.295 234.811 30.36 234.891 30.49C234.981 30.61 235.026 30.755 235.026 30.925C235.026 31.095 234.981 31.24 234.891 31.36C234.811 31.48 234.686 31.54 234.516 31.54H227.766C227.556 31.54 227.451 31.645 227.451 31.855V33.49C227.451 33.7 227.556 33.805 227.766 33.805H234.666C234.836 33.805 234.961 33.865 235.041 33.985C235.131 34.105 235.176 34.25 235.176 34.42C235.176 34.59 235.131 34.74 235.041 34.87C234.961 34.99 234.836 35.05 234.666 35.05H227.091C226.651 35.05 226.351 34.97 226.191 34.81C226.031 34.65 225.951 34.355 225.951 33.925V31.42C225.951 30.99 226.031 30.695 226.191 30.535C226.351 30.375 226.651 30.295 227.091 30.295H234.516ZM236.286 36.37C236.466 36.37 236.596 36.43 236.676 36.55C236.766 36.67 236.811 36.82 236.811 37C236.811 37.17 236.766 37.32 236.676 37.45C236.596 37.57 236.466 37.63 236.286 37.63H224.736C224.556 37.63 224.421 37.57 224.331 37.45C224.251 37.32 224.211 37.17 224.211 37C224.211 36.82 224.251 36.67 224.331 36.55C224.421 36.43 224.556 36.37 224.736 36.37H236.286ZM230.511 38.755C231.961 38.755 233.086 38.965 233.886 39.385C234.696 39.805 235.101 40.455 235.101 41.335C235.101 42.225 234.696 42.875 233.886 43.285C233.086 43.705 231.961 43.915 230.511 43.915C229.061 43.915 227.931 43.705 227.121 43.285C226.321 42.875 225.921 42.225 225.921 41.335C225.921 40.455 226.321 39.805 227.121 39.385C227.931 38.965 229.061 38.755 230.511 38.755ZM230.511 39.955C229.421 39.955 228.631 40.075 228.141 40.315C227.651 40.545 227.406 40.885 227.406 41.335C227.406 41.785 227.651 42.125 228.141 42.355C228.631 42.595 229.421 42.715 230.511 42.715C231.601 42.715 232.391 42.595 232.881 42.355C233.371 42.125 233.616 41.785 233.616 41.335C233.616 40.885 233.371 40.545 232.881 40.315C232.391 40.075 231.601 39.955 230.511 39.955Z" fill="#37373D"/>
</svg>
