<svg width="14" height="14" viewBox="0 0 14 14" fill="none" xmlns="http://www.w3.org/2000/svg">
<path fill-rule="evenodd" clip-rule="evenodd" d="M6.05 0.5C6.506 0.5 6.955 0.568 7.384 0.697C7.0716 1.2667 6.91258 1.90779 6.92253 2.55745C6.93247 3.2071 7.11104 3.84302 7.44073 4.40289C7.77042 4.96276 8.23993 5.42737 8.80322 5.75117C9.36652 6.07497 10.0043 6.24687 10.654 6.25V8.477C10.654 8.56835 10.672 8.65881 10.707 8.7432C10.742 8.82758 10.7933 8.90424 10.8579 8.96879C10.9226 9.03334 10.9993 9.08452 11.0837 9.11938C11.1682 9.15425 11.2586 9.17213 11.35 9.172C11.5489 9.172 11.7397 9.25102 11.8803 9.39167C12.021 9.53232 12.1 9.72309 12.1 9.922C12.1 10.1209 12.021 10.3117 11.8803 10.4523C11.7397 10.593 11.5489 10.672 11.35 10.672H0.75C0.551088 10.672 0.360322 10.593 0.21967 10.4523C0.0790176 10.3117 0 10.1209 0 9.922C0 9.72309 0.0790176 9.53232 0.21967 9.39167C0.360322 9.25102 0.551088 9.172 0.75 9.172C0.841353 9.17213 0.931835 9.15425 1.01627 9.11938C1.10071 9.08452 1.17744 9.03334 1.24209 8.96879C1.30673 8.90424 1.35801 8.82758 1.393 8.7432C1.42799 8.65881 1.446 8.56835 1.446 8.477V5.104C1.446 3.88294 1.93106 2.7119 2.79448 1.84848C3.6579 0.985063 4.82894 0.5 6.05 0.5ZM5.05 12C4.85109 12 4.66032 12.079 4.51967 12.2197C4.37902 12.3603 4.3 12.5511 4.3 12.75C4.3 12.9489 4.37902 13.1397 4.51967 13.2803C4.66032 13.421 4.85109 13.5 5.05 13.5H7.05C7.24891 13.5 7.43968 13.421 7.58033 13.2803C7.72098 13.1397 7.8 12.9489 7.8 12.75C7.8 12.5511 7.72098 12.3603 7.58033 12.2197C7.43968 12.079 7.24891 12 7.05 12H5.05Z" fill="#926CFD"/>
<path d="M10.6731 5C11.3361 5 11.972 4.73661 12.4409 4.26777C12.9097 3.79893 13.1731 3.16304 13.1731 2.5C13.1731 1.83696 12.9097 1.20107 12.4409 0.732233C11.972 0.263392 11.3361 0 10.6731 0C10.0101 0 9.37417 0.263392 8.90533 0.732233C8.43649 1.20107 8.1731 1.83696 8.1731 2.5C8.1731 3.16304 8.43649 3.79893 8.90533 4.26777C9.37417 4.73661 10.0101 5 10.6731 5Z" fill="#926CFD"/>
</svg>
