<svg width="24" height="24" viewBox="0 0 24 24" fill="none" xmlns="http://www.w3.org/2000/svg">
<path d="M22 14.9995L17.645 19.3745C16.41 20.6685 15.793 21.3155 15.114 21.6335C14.604 21.8737 14.0473 21.9987 13.4835 21.9996C12.9198 22.0004 12.3627 21.8772 11.852 21.6385C11.173 21.3235 10.558 20.6785 9.32799 19.3885C8.68199 18.7115 8.35999 18.3735 8.12599 17.9895C7.76613 17.3987 7.55413 16.7297 7.50799 16.0395C7.47599 15.5835 7.54199 15.1095 7.67199 14.1595L8.24799 9.97949C8.33699 9.33749 8.82799 8.83849 9.44299 8.76549C10.247 8.67049 10.949 9.32849 10.948 10.1765L10.945 12.1105L15.468 7.36949C15.5771 7.25273 15.709 7.15964 15.8556 7.096C16.0021 7.03235 16.1602 6.99951 16.32 6.99951C16.4798 6.99951 16.6379 7.03235 16.7844 7.096C16.931 7.15964 17.0629 7.25273 17.172 7.36949C17.642 7.86249 19.7334 7.90004 19.2634 8.39304M19.2634 8.39304L18.308 7.96549C18.4171 7.84889 18.5489 7.75594 18.6954 7.69239C18.8419 7.62884 18.9998 7.59605 19.1595 7.59605C19.3192 7.59605 19.4771 7.62884 19.6236 7.69239C19.7701 7.75594 19.9019 7.84889 20.011 7.96549C20.481 8.45749 20.481 9.25749 20.011 9.75049L18.875 10.9405M19.2634 8.39304L14.616 11.8345L19.2634 8.39304ZM18.876 10.9415C18.9851 10.8249 19.1169 10.7319 19.2634 10.6684C19.4099 10.6048 19.5678 10.572 19.7275 10.572C19.8872 10.572 20.0451 10.6048 20.1916 10.6684C20.3381 10.7319 20.4699 10.8249 20.579 10.9415C21.049 11.4345 21.049 12.2345 20.579 12.7275L19.8306 13.5299M18.876 10.9415L16.32 13.6195L18.876 10.9415ZM19.8306 13.5299L18.023 15.4055L19.8306 13.5299Z" fill="#FDD000"/>
<path d="M20.295 16.597L17.645 19.375C16.41 20.669 15.793 21.316 15.114 21.634C14.604 21.8742 14.0473 21.9992 13.4835 22.0001C12.9198 22.0009 12.3627 21.8776 11.852 21.639C11.173 21.324 10.558 20.679 9.32799 19.389C8.68199 18.712 8.35999 18.374 8.12599 17.99C7.76613 17.3992 7.55413 16.7302 7.50799 16.04C7.47599 15.584 7.54199 15.11 7.67199 14.16L8.24799 9.97998C8.33699 9.33798 8.82799 8.83898 9.44299 8.76598C10.247 8.67098 10.949 9.32898 10.948 10.177L10.945 12.111L15.468 7.36998C15.5771 7.25322 15.709 7.16013 15.8556 7.09649C16.0021 7.03284 16.1602 7 16.32 7C16.4798 7 16.6379 7.03284 16.7844 7.09649C16.931 7.16013 17.0629 7.25322 17.172 7.36998C17.642 7.86298 17.642 8.66298 17.172 9.15598M17.172 9.15598L18.308 7.96598C18.4171 7.84938 18.5489 7.75643 18.6954 7.69288C18.8419 7.62933 18.9998 7.59654 19.1595 7.59654C19.3192 7.59654 19.4771 7.62933 19.6236 7.69288C19.7701 7.75643 19.9019 7.84938 20.011 7.96598C20.481 8.45798 20.481 9.25798 20.011 9.75098L18.875 10.941M17.172 9.15598L14.616 11.835M19.443 13.918L20.579 12.728C21.049 12.235 21.049 11.435 20.579 10.942C20.4699 10.8254 20.3381 10.7324 20.1916 10.6689C20.0451 10.6053 19.8872 10.5725 19.7275 10.5725C19.5678 10.5725 19.4099 10.6053 19.2634 10.6689C19.1169 10.7324 18.9851 10.8254 18.876 10.942L16.32 13.62M19.443 13.918C19.5521 13.8012 19.684 13.7081 19.8306 13.6445C19.9771 13.5808 20.1352 13.548 20.295 13.548C20.4548 13.548 20.6129 13.5808 20.7594 13.6445C20.906 13.7081 21.0379 13.8012 21.147 13.918C21.617 14.411 21.617 15.21 21.147 15.704L19.727 17.192M19.443 13.918L18.023 15.406" stroke="#252525" stroke-width="1.5" stroke-linecap="round" stroke-linejoin="round"/>
<path d="M4.71998 14.9999L4.34698 14.6069C3.69498 13.9179 3.36898 13.5739 3.13198 13.1829C2.77098 12.5869 2.55698 11.9049 2.50798 11.1979C2.47598 10.7349 2.54198 10.2519 2.67398 9.28689L3.25598 5.03289C3.34498 4.37889 3.84198 3.87089 4.46398 3.79689C5.27598 3.69989 5.98498 4.36989 5.98498 5.23289L5.98198 7.20089L10.552 2.37589C10.6618 2.25719 10.795 2.16249 10.9431 2.09772C11.0913 2.03295 11.2513 1.99951 11.413 1.99951C11.5747 1.99951 11.7346 2.03295 11.8828 2.09772C12.031 2.16249 12.1642 2.25719 12.274 2.37589C12.5034 2.62299 12.6309 2.94771 12.6309 3.28489C12.6309 3.62207 12.5034 3.94678 12.274 4.19389L13.422 2.98189C13.5318 2.86335 13.6649 2.76878 13.813 2.70411C13.9611 2.63944 14.1209 2.60605 14.2825 2.60605C14.4441 2.60605 14.6039 2.63944 14.752 2.70411C14.9001 2.76878 15.0332 2.86335 15.143 2.98189C15.3724 3.22899 15.4999 3.55371 15.4999 3.89089C15.4999 4.22807 15.3724 4.55278 15.143 4.79989M12.273 4.19389L10.511 6.05389" stroke="#252525" stroke-width="1.5" stroke-linecap="round" stroke-linejoin="round"/>
</svg>
