<svg width="24" height="24" viewBox="0 0 24 24" fill="none" xmlns="http://www.w3.org/2000/svg">
<path d="M20.295 16.597L17.645 19.375C16.41 20.669 15.793 21.316 15.114 21.634C14.604 21.8742 14.0473 21.9992 13.4835 22.0001C12.9198 22.0009 12.3627 21.8776 11.852 21.639C11.173 21.324 10.558 20.679 9.32799 19.389C8.68199 18.712 8.35999 18.374 8.12599 17.99C7.76613 17.3992 7.55413 16.7302 7.50799 16.04C7.47599 15.584 7.54199 15.11 7.67199 14.16L8.24799 9.97998C8.33699 9.33798 8.82799 8.83898 9.44299 8.76598C10.247 8.67098 10.949 9.32898 10.948 10.177L10.945 12.111L15.468 7.36998C15.5771 7.25322 15.709 7.16013 15.8556 7.09649C16.0021 7.03284 16.1602 7 16.32 7C16.4798 7 16.6379 7.03284 16.7844 7.09649C16.931 7.16013 17.0629 7.25322 17.172 7.36998C17.642 7.86298 17.642 8.66298 17.172 9.15598M17.172 9.15598L18.308 7.96598C18.4171 7.84938 18.5489 7.75643 18.6954 7.69288C18.8419 7.62933 18.9998 7.59654 19.1595 7.59654C19.3192 7.59654 19.4771 7.62933 19.6236 7.69288C19.7701 7.75643 19.9019 7.84938 20.011 7.96598C20.481 8.45798 20.481 9.25798 20.011 9.75098L18.875 10.941M17.172 9.15598L14.616 11.835M19.443 13.918L20.579 12.728C21.049 12.235 21.049 11.435 20.579 10.942C20.4699 10.8254 20.3381 10.7324 20.1916 10.6689C20.0451 10.6053 19.8872 10.5725 19.7275 10.5725C19.5678 10.5725 19.4099 10.6053 19.2634 10.6689C19.1169 10.7324 18.9851 10.8254 18.876 10.942L16.32 13.62M19.443 13.918C19.5521 13.8012 19.684 13.7081 19.8306 13.6445C19.9771 13.5808 20.1352 13.548 20.295 13.548C20.4548 13.548 20.6129 13.5808 20.7594 13.6445C20.906 13.7081 21.0379 13.8012 21.147 13.918C21.617 14.411 21.617 15.21 21.147 15.704L19.727 17.192M19.443 13.918L18.023 15.406" stroke="#171719" stroke-width="1.5" stroke-linecap="round" stroke-linejoin="round"/>
<path d="M4.71998 15.0004L4.34698 14.6074C3.69498 13.9184 3.36898 13.5744 3.13198 13.1834C2.77098 12.5874 2.55698 11.9054 2.50798 11.1984C2.47598 10.7354 2.54198 10.2524 2.67398 9.28738L3.25598 5.03338C3.34498 4.37938 3.84198 3.87138 4.46398 3.79738C5.27598 3.70038 5.98498 4.37038 5.98498 5.23338L5.98198 7.20138L10.552 2.37638C10.6618 2.25768 10.795 2.16298 10.9431 2.09821C11.0913 2.03344 11.2513 2 11.413 2C11.5747 2 11.7346 2.03344 11.8828 2.09821C12.031 2.16298 12.1642 2.25768 12.274 2.37638C12.5034 2.62348 12.6309 2.94819 12.6309 3.28538C12.6309 3.62256 12.5034 3.94727 12.274 4.19438L13.422 2.98238C13.5318 2.86384 13.6649 2.76927 13.813 2.7046C13.9611 2.63992 14.1209 2.60654 14.2825 2.60654C14.4441 2.60654 14.6039 2.63992 14.752 2.7046C14.9001 2.76927 15.0332 2.86384 15.143 2.98238C15.3724 3.22948 15.4999 3.55419 15.4999 3.89138C15.4999 4.22856 15.3724 4.55327 15.143 4.80038M12.273 4.19438L10.511 6.05438" stroke="#171719" stroke-width="1.5" stroke-linecap="round" stroke-linejoin="round"/>
</svg>
