<svg width="24" height="24" viewBox="0 0 24 24" fill="none" xmlns="http://www.w3.org/2000/svg">
<g clip-path="url(#clip0_6906_1155)">
<path d="M21.4446 16.4444C21.4446 17.0338 21.2104 17.599 20.7937 18.0158C20.3769 18.4325 19.8117 18.6667 19.2223 18.6667H4.77789C4.18852 18.6667 3.62329 18.4325 3.20654 18.0158C2.78979 17.599 2.55566 17.0338 2.55566 16.4444V5.50722C2.55566 4.28 5.77289 2 7.00011 2H18.4584C20.1773 2 21.4446 3.28444 21.4446 4.98611V16.4444Z" fill="#FFB300"/>
<path d="M20.3332 18.6671C20.3332 19.2565 20.099 19.8217 19.6823 20.2384C19.2656 20.6552 18.7003 20.8893 18.111 20.8893H5.88873C5.29936 20.8893 4.73413 20.6552 4.31738 20.2384C3.90063 19.8217 3.6665 19.2565 3.6665 18.6671V5.33375C3.6665 3.04541 3.65484 3.11153 6.44428 3.11153H18.111C18.7003 3.11153 19.2656 3.34565 19.6823 3.7624C20.099 4.17915 20.3332 4.74438 20.3332 5.33375V18.6671Z" fill="#CCD6DD"/>
<path d="M19.2223 19.2227C19.2223 19.6647 19.0467 20.0886 18.7342 20.4012C18.4216 20.7137 17.9977 20.8893 17.5557 20.8893H4.22233C3.7803 20.8893 3.35638 20.7137 3.04382 20.4012C2.73126 20.0886 2.55566 19.6647 2.55566 19.2227V5.88932C2.55566 5.4473 2.73126 5.02337 3.04382 4.71081C3.35638 4.39825 3.7803 4.22266 4.22233 4.22266H17.5557C17.9977 4.22266 18.4216 4.39825 18.7342 4.71081C19.0467 5.02337 19.2223 5.4473 19.2223 5.88932V19.2227Z" fill="#E1E8ED"/>
<path d="M19.2224 19.7775C19.2224 20.3668 18.9883 20.9321 18.5716 21.3488C18.1548 21.7655 17.5896 21.9997 17.0002 21.9997H5.33355C4.74418 21.9997 4.17895 21.7655 3.7622 21.3488C3.34545 20.9321 3.11133 20.3668 3.11133 19.7775V7.55523C3.11133 6.96586 3.34545 6.40063 3.7622 5.98388C4.17895 5.56713 4.74418 5.33301 5.33355 5.33301H17.0002C17.5896 5.33301 18.1548 5.56713 18.5716 5.98388C18.9883 6.40063 19.2224 6.96586 19.2224 7.55523V19.7775Z" fill="#FFC300"/>
<path d="M18.1113 19.7777C18.1113 20.367 17.8772 20.9323 17.4605 21.349C17.0437 21.7658 16.4785 21.9999 15.8891 21.9999H5.33355C4.74418 21.9999 4.17895 21.7658 3.7622 21.349C3.34545 20.9323 3.11133 20.367 3.11133 19.7777V8.66656C3.11133 8.07719 3.34545 7.51196 3.7622 7.09521C4.17895 6.67846 4.74418 6.44434 5.33355 6.44434H16.0752C17.3024 6.44434 18.1113 7.25322 18.1113 8.48045V19.7777Z" fill="#FFD900"/>
<path d="M5.33344 5.33333C4.39566 5.33333 4.37178 4.26556 4.77789 3.80556C5.24011 3.28278 5.95844 3.11111 7.24344 3.11111H8.11122V2H6.60066C4.39566 2 2.55566 3.38889 2.55566 4.98611V19.7778C2.55566 20.3671 2.78979 20.9324 3.20654 21.3491C3.62329 21.7659 4.18852 22 4.77789 22H5.889V5.33333H5.33344Z" fill="#FFB300"/>
</g>
<defs>
<clipPath id="clip0_6906_1155">
<rect width="20" height="20" fill="white" transform="translate(2 2)"/>
</clipPath>
</defs>
</svg>
