<svg width="47" height="47" viewBox="0 0 47 47" fill="none" xmlns="http://www.w3.org/2000/svg">
<path d="M43.5805 17.064L20.625 40.0012L5.56138 44.8012C5.31718 43.8128 4.80763 42.9099 4.08772 42.19C3.36782 41.4701 2.46494 40.9606 1.47656 40.7164L6.26658 25.6444L29.2104 2.69727L43.5805 17.064Z" fill="#F4D0A1"/>
<path d="M29.2043 2.69727L6.25877 25.6444L1.46875 40.718C2.43502 40.9591 3.3193 41.4541 4.03008 42.1517L36.3461 9.83572L29.2043 2.69727Z" fill="#F8E1C2"/>
<path d="M44.5776 16.0713L43.5497 17.0975L29.1797 2.72747L30.2075 1.70128C30.7466 1.16193 31.3866 0.734074 32.0911 0.442162C32.7955 0.15025 33.5506 0 34.3132 0C35.0757 0 35.8308 0.15025 36.5352 0.442162C37.2397 0.734074 37.8797 1.16193 38.4188 1.70128L44.5759 7.86011C45.1153 8.39916 45.5431 9.03919 45.835 9.74365C46.127 10.4481 46.2772 11.2032 46.2772 11.9657C46.2772 12.7283 46.127 13.4833 45.835 14.1878C45.5431 14.8922 45.1169 15.5323 44.5776 16.0713Z" fill="#FCAEB1"/>
<path d="M5.56011 44.8001L0.4624 46.2621C0.400133 46.2794 0.334399 46.2799 0.271881 46.2635C0.209364 46.2472 0.152294 46.2145 0.106476 46.169C0.0609038 46.1231 0.0282788 46.0661 0.0119191 46.0036C-0.00444065 45.941 -0.00395103 45.8753 0.0133371 45.813L1.47529 40.7153C2.45658 40.9748 3.34972 41.4904 4.06656 42.2089C4.78506 42.9241 5.30065 43.8189 5.56011 44.8001Z" fill="#3E3E3F"/>
<path d="M29.1815 2.72559L26.1328 5.77423L40.5029 20.1443L43.5498 17.0956L29.1815 2.72559Z" fill="#FACB1B"/>
<path d="M40.4711 20.1757L20.7588 39.8846C20.7192 39.9247 20.6721 39.9564 20.6201 39.9781C20.5682 39.9998 20.5124 40.011 20.4561 40.011C20.3998 40.011 20.3441 39.9998 20.2921 39.9781C20.2402 39.9564 20.193 39.9247 20.1534 39.8846C20.0769 39.8055 20.0251 39.7058 20.0044 39.5976C19.9837 39.4895 19.995 39.3777 20.037 39.2759C20.2656 38.7477 20.3313 38.1632 20.2256 37.5975C20.12 37.0317 19.8479 36.5103 19.4442 36.1001C19.0404 35.69 18.5234 35.4096 17.9594 35.2951C17.3953 35.1806 16.8099 35.237 16.2782 35.4572C16.1622 35.5056 16.0344 35.5183 15.9112 35.4937C15.7879 35.4691 15.6748 35.4083 15.5863 35.3191L15.5746 35.3092C15.4851 35.2205 15.4241 35.1071 15.3995 34.9835C15.3749 34.8599 15.3878 34.7318 15.4366 34.6156C15.6555 34.0874 15.7129 33.5061 15.6014 32.9452C15.4899 32.3844 15.2145 31.8692 14.8102 31.4649C14.4059 31.0605 13.8907 30.7852 13.3298 30.6737C12.769 30.5622 12.1877 30.6196 11.6595 30.8385C11.5431 30.887 11.4149 30.8997 11.2913 30.8748C11.1677 30.8499 11.0544 30.7886 10.9659 30.6988C10.8727 30.6108 10.8085 30.4965 10.7818 30.3712C10.755 30.2458 10.7671 30.1153 10.8162 29.9969C10.9798 29.6002 11.0531 29.1721 11.0309 28.7436C11.0086 28.3152 10.8914 27.897 10.6876 27.5194C10.4838 27.1418 10.1986 26.8142 9.85269 26.5604C9.50673 26.3065 9.10867 26.1328 8.68732 26.0518C8.11847 25.9442 7.53042 26.0096 6.99917 26.2397C6.89701 26.2818 6.78476 26.2931 6.67629 26.2721C6.56781 26.2511 6.46785 26.1988 6.38877 26.1217C6.34854 26.0822 6.31659 26.0351 6.29477 25.9831C6.27296 25.9311 6.26172 25.8753 6.26172 25.819C6.26172 25.7626 6.27296 25.7068 6.29477 25.6548C6.31659 25.6028 6.34854 25.5557 6.38877 25.5162L26.101 5.80566L40.4711 20.1757Z" fill="#2482F5"/>
<path d="M35.8504 15.5558L15.9119 35.4942C15.7865 35.471 15.6715 35.4094 15.5826 35.3179C15.4894 35.2299 15.4252 35.1156 15.3985 34.9903C15.3718 34.8649 15.3838 34.7344 15.4329 34.616C15.6499 34.088 15.7058 33.5076 15.5937 32.9479C15.4816 32.3882 15.2064 31.8741 14.8029 31.4704C14.3993 31.0666 13.8854 30.7912 13.3257 30.6789C12.766 30.5665 12.1856 30.6222 11.6575 30.8389C11.5389 30.8885 11.408 30.9007 11.2823 30.8739C11.1566 30.8472 11.0421 30.7828 10.9539 30.6892C10.8658 30.5988 10.8052 30.4852 10.7793 30.3616L30.7177 10.4248L35.8504 15.5558Z" fill="#63A4FF"/>
<path d="M38.4171 1.70128C37.8781 1.16193 37.238 0.734074 36.5336 0.442162C35.8291 0.15025 35.074 0 34.3115 0C33.5489 0 32.7939 0.15025 32.0894 0.442162C31.385 0.734074 30.7449 1.16193 30.2059 1.70128L29.1797 2.72747L36.3181 9.86759L41.4508 4.73496L38.4171 1.70128Z" fill="#FCAEB1"/>
</svg>
