<svg width="49" height="56" viewBox="0 0 49 56" fill="none" xmlns="http://www.w3.org/2000/svg">
<g clip-path="url(#clip0_6906_3077)">
<path d="M27.0423 5.38281H21.6724V10.6157H27.0423V5.38281Z" fill="#E28F25"/>
<path fill-rule="evenodd" clip-rule="evenodd" d="M20.6039 5.38307H28.1058C29.59 5.38307 30.8043 4.16938 30.8043 2.68574C30.8043 1.21564 29.59 0.00195312 28.1058 0.00195312H20.6039C19.1197 0.00195312 17.9189 1.21585 17.9189 2.68574C17.9189 4.16938 19.1197 5.38307 20.6039 5.38307Z" fill="#F8A146"/>
<path fill-rule="evenodd" clip-rule="evenodd" d="M24.3574 7.16406C37.8095 7.16406 48.7114 18.0616 48.7114 31.4947C48.7114 44.9278 37.8095 55.8386 24.3574 55.8386C10.9053 55.8386 0.00341797 44.9409 0.00341797 31.4945C0.00341797 18.048 10.9053 7.16406 24.3574 7.16406Z" fill="#F8A146"/>
<path fill-rule="evenodd" clip-rule="evenodd" d="M24.3574 13.0705C34.5309 13.0705 42.7714 21.3208 42.7714 31.4781C42.7714 41.6354 34.5309 49.8983 24.3574 49.8983C14.1838 49.8983 5.94336 41.6478 5.94336 31.4779C5.94336 21.3081 14.1838 13.0703 24.3574 13.0703V13.0705Z" fill="white"/>
<path fill-rule="evenodd" clip-rule="evenodd" d="M34.2725 21.5811L27.0136 34.1509L14.4385 41.4205L21.7109 28.8507L34.2725 21.5811Z" fill="#D55340"/>
<path fill-rule="evenodd" clip-rule="evenodd" d="M34.2725 21.5811L27.0136 34.1509L21.7109 28.8507L34.2725 21.5811Z" fill="#C0C0C0"/>
<path fill-rule="evenodd" clip-rule="evenodd" d="M24.3562 29.5264C25.4491 29.5264 26.3261 30.4165 26.3261 31.4955C26.3261 32.5746 25.4491 33.478 24.3562 33.478C23.2632 33.478 22.3862 32.5879 22.3862 31.4955C22.3862 30.4032 23.2632 29.5264 24.3562 29.5264Z" fill="#413B54"/>
<path fill-rule="evenodd" clip-rule="evenodd" d="M24.349 14.2588C24.723 14.2588 25.0326 14.5684 25.0326 14.9295V18.1411C25.0326 18.5151 24.723 18.8118 24.349 18.8118C23.975 18.8118 23.6655 18.5151 23.6655 18.1411V14.9295C23.6655 14.5682 23.975 14.2588 24.349 14.2588ZM41.5814 31.4784C41.5814 31.8524 41.2719 32.162 40.8979 32.162H37.6991C37.3251 32.162 37.0156 31.8524 37.0156 31.4784C37.0156 31.1171 37.3251 30.8077 37.6991 30.8077H40.8979C41.2719 30.8077 41.5814 31.1173 41.5814 31.4784ZM11.6827 31.4784C11.6827 31.8524 11.3731 32.162 11.0119 32.162H7.80019C7.42618 32.162 7.12939 31.8524 7.12939 31.4784C7.12939 31.1171 7.42598 30.8077 7.80019 30.8077H11.0119C11.3729 30.8077 11.6827 31.1173 11.6827 31.4784ZM24.349 44.1448C24.723 44.1448 25.0326 44.4544 25.0326 44.8285V48.0271C25.0326 48.4014 24.723 48.7108 24.349 48.7108C23.975 48.7108 23.6655 48.4012 23.6655 48.0271V44.8285C23.6655 44.4544 23.975 44.1448 24.349 44.1448Z" fill="#C0C0C0"/>
<path fill-rule="evenodd" clip-rule="evenodd" d="M24.3543 30.6719C24.813 30.6719 25.191 31.0361 25.191 31.4947C25.191 31.9533 24.8132 32.3308 24.3543 32.3308C23.8954 32.3308 23.5312 31.9531 23.5312 31.4947C23.5312 31.0363 23.8956 30.6719 24.3543 30.6719Z" fill="#2A243F"/>
</g>
<defs>
<clipPath id="clip0_6906_3077">
<rect width="48.708" height="55.836" fill="white"/>
</clipPath>
</defs>
</svg>
