<svg width="48" height="44" viewBox="0 0 48 44" fill="none" xmlns="http://www.w3.org/2000/svg">
<path fill-rule="evenodd" clip-rule="evenodd" d="M47.3373 40.365C47.3373 42.3476 45.2132 43.956 44.0569 43.956H3.28037C2.1256 43.956 0 42.3476 0 40.365V3.58808C0 1.60837 2.1256 0 3.28037 0H44.0569C45.2139 0 47.3373 1.60837 47.3373 3.58808V40.365Z" fill="#485465"/>
<path fill-rule="evenodd" clip-rule="evenodd" d="M12.4618 36.5632C12.4618 38.4718 11.3359 40.0216 9.94839 40.0216H4.97578C3.5868 40.0216 2.46094 38.4718 2.46094 36.5632V13.9437C2.46094 12.0322 3.5868 10.4854 4.97578 10.4854H9.94839C11.3359 10.4854 12.4618 12.0322 12.4618 13.9437V36.5632ZM23.3616 36.5632C23.3616 38.4718 22.2358 40.0216 20.8453 40.0216H15.8757C14.4867 40.0216 13.3593 38.4718 13.3593 36.5632V13.9437C13.3593 12.0322 14.4867 10.4854 15.8757 10.4854H20.8453C22.2358 10.4854 23.3616 12.0322 23.3616 13.9437V36.5632ZM34.1659 36.5632C34.1659 38.4718 33.0393 40.0216 31.6503 40.0216H26.6792C25.2902 40.0216 24.1628 38.4718 24.1628 36.5632V13.9437C24.1628 12.0322 25.2902 10.4854 26.6792 10.4854H31.6503C33.0393 10.4854 34.1659 12.0322 34.1659 13.9437V36.5632ZM45.0628 36.5632C45.0628 38.4718 43.9354 40.0216 42.5457 40.0216H37.5746C36.1856 40.0216 35.0598 38.4718 35.0598 36.5632V13.9437C35.0598 12.0322 36.1856 10.4854 37.5746 10.4854H42.5457C43.9347 10.4854 45.0628 12.0322 45.0628 13.9437V36.5632Z" fill="white"/>
<path fill-rule="evenodd" clip-rule="evenodd" d="M15.4579 29.4281C15.4579 30.8156 14.8923 31.9399 14.1934 31.9399H11.6956C10.9967 31.9399 10.4326 30.8156 10.4326 29.4281V12.996C10.4326 11.61 10.9967 10.4856 11.6956 10.4856H14.1934C14.8923 10.4856 15.4579 11.61 15.4579 12.996V29.4281ZM26.2969 29.4281C26.2969 30.8156 25.7322 31.9399 25.034 31.9399H22.5362C21.8387 31.9399 21.2725 30.8156 21.2725 29.4281V12.996C21.2725 11.61 21.8387 10.4856 22.5362 10.4856H25.034C25.7322 10.4856 26.2969 11.61 26.2969 12.996V29.4281ZM37.0968 28.9152C37.0968 30.3041 36.529 31.427 35.8323 31.427H33.3345C32.6363 31.427 32.07 30.3041 32.07 28.9152V12.4831C32.07 11.0956 32.6363 9.96973 33.3345 9.96973H35.8323C36.529 9.96973 37.0968 11.0956 37.0968 12.4831V28.9152Z" fill="#485465"/>
</svg>
