<svg width="40" height="52" viewBox="0 0 40 52" fill="none" xmlns="http://www.w3.org/2000/svg">
<path d="M1.17676 17.5252C1.17676 29.3851 10.748 38.9999 22.5542 38.9999C28.4585 38.9999 34.2838 36.4633 38.1527 32.5768L7.6682 1.93262C3.79933 5.81909 1.17676 11.594 1.17676 17.5252Z" fill="#FFBC5A"/>
<path d="M35.2102 29.6201C35.1081 30.0165 34.9131 30.3941 34.6044 30.7042C30.167 35.1596 23.715 37.8197 17.3442 37.8197C16.6642 37.8197 15.9958 37.7731 15.332 37.7171C17.5925 38.5331 20.0178 39.0017 22.5569 39.0017C28.4611 39.0017 34.2865 36.4652 38.1554 32.5787L35.2148 29.6224L35.2102 29.6201Z" fill="#EF9D3A"/>
<path d="M29.4122 47.2734H1.17668C0.526816 47.2734 0 47.8026 0 48.4555V50.8195C0 51.4723 0.526816 52.0016 1.17668 52.0016H29.4122C30.0621 52.0016 30.5889 51.4723 30.5889 50.8195V48.4555C30.5889 47.8026 30.0621 47.2734 29.4122 47.2734Z" fill="#505572"/>
<path d="M29.4119 47.2734H27.0586C27.7084 47.2734 28.2353 47.8027 28.2353 48.4555V50.8195C28.2353 51.4723 27.7084 52.0016 27.0586 52.0016H29.4119C30.0618 52.0016 30.5886 51.4723 30.5886 50.8195V48.4555C30.5886 47.8027 30.0618 47.2734 29.4119 47.2734Z" fill="#3D4360"/>
<path d="M8.88226 37.4846L4.70703 47.2719H25.8825L21.7073 37.4846C19.2913 31.8215 11.2983 31.8215 8.88226 37.4846Z" fill="#8491C1"/>
<path d="M17.5843 40.7228C17.8829 39.452 17.0995 38.1788 15.8345 37.8789C14.5695 37.5789 13.302 38.3659 13.0035 39.6367C12.7049 40.9074 13.4883 42.1806 14.7533 42.4805C16.0183 42.7805 17.2858 41.9935 17.5843 40.7228Z" fill="#D3DBEF"/>
<path d="M38.172 32.5602C40.01 30.7138 34.6729 22.3586 26.251 13.8985C17.8292 5.43833 9.51192 0.0768702 7.67384 1.92332C5.83576 3.76976 11.1729 12.1249 19.5948 20.5851C28.0166 29.0452 36.3339 34.4067 38.172 32.5602Z" fill="#D3DBEF"/>
<path d="M16.4297 17.2498C17.4253 18.3502 18.4813 19.467 19.5953 20.5861C20.8324 21.8287 22.0624 22.9944 23.2762 24.0902L38.8237 1.18164L16.4297 17.2498Z" fill="#8491C1"/>
<path d="M31.4082 6.50194C31.9559 7.4415 32.7473 8.20854 33.7035 8.72612L38.8257 1.18164L31.4105 6.50194H31.4082Z" fill="#6C80AD"/>
<path d="M36.4705 7.09218C38.42 7.09218 40.0005 5.50454 40.0005 3.54609C40.0005 1.58764 38.42 0 36.4705 0C34.5209 0 32.9404 1.58764 32.9404 3.54609C32.9404 5.50454 34.5209 7.09218 36.4705 7.09218Z" fill="#FFBC5A"/>
</svg>
