<svg width="24" height="24" viewBox="0 0 24 24" fill="none" xmlns="http://www.w3.org/2000/svg">
<g clip-path="url(#clip0_1_16391)">
<path d="M21.4444 16.4444C21.4444 17.0338 21.2103 17.599 20.7936 18.0158C20.3768 18.4325 19.8116 18.6667 19.2222 18.6667H4.77776C4.18839 18.6667 3.62316 18.4325 3.20642 18.0158C2.78967 17.599 2.55554 17.0338 2.55554 16.4444V5.50722C2.55554 4.28 5.77276 2 6.99999 2H18.4583C20.1772 2 21.4444 3.28444 21.4444 4.98611V16.4444Z" fill="#926CFD"/>
<path d="M20.3333 18.6666C20.3333 19.256 20.0992 19.8212 19.6825 20.2379C19.2657 20.6547 18.7005 20.8888 18.1111 20.8888H5.88888C5.29951 20.8888 4.73428 20.6547 4.31753 20.2379C3.90078 19.8212 3.66666 19.256 3.66666 18.6666V5.33326C3.66666 3.04493 3.65499 3.11104 6.44444 3.11104H18.1111C18.7005 3.11104 19.2657 3.34516 19.6825 3.76191C20.0992 4.17866 20.3333 4.74389 20.3333 5.33326V18.6666Z" fill="#CCD6DD"/>
<path d="M19.2222 19.2222C19.2222 19.6642 19.0466 20.0881 18.7341 20.4007C18.4215 20.7132 17.9976 20.8888 17.5555 20.8888H4.22221C3.78018 20.8888 3.35626 20.7132 3.0437 20.4007C2.73114 20.0881 2.55554 19.6642 2.55554 19.2222V5.88883C2.55554 5.44681 2.73114 5.02288 3.0437 4.71032C3.35626 4.39776 3.78018 4.22217 4.22221 4.22217H17.5555C17.9976 4.22217 18.4215 4.39776 18.7341 4.71032C19.0466 5.02288 19.2222 5.44681 19.2222 5.88883V19.2222Z" fill="#E1E8ED"/>
<path d="M19.2222 19.7777C19.2222 20.3671 18.9881 20.9323 18.5714 21.349C18.1546 21.7658 17.5894 21.9999 17 21.9999H5.33334C4.74397 21.9999 4.17874 21.7658 3.76199 21.349C3.34524 20.9323 3.11111 20.3671 3.11111 19.7777V7.55547C3.11111 6.9661 3.34524 6.40087 3.76199 5.98413C4.17874 5.56738 4.74397 5.33325 5.33334 5.33325H17C17.5894 5.33325 18.1546 5.56738 18.5714 5.98413C18.9881 6.40087 19.2222 6.9661 19.2222 7.55547V19.7777Z" fill="#926CFD"/>
<path d="M18.1111 19.7777C18.1111 20.367 17.877 20.9323 17.4602 21.349C17.0435 21.7658 16.4783 21.9999 15.8889 21.9999H5.33334C4.74397 21.9999 4.17874 21.7658 3.76199 21.349C3.34524 20.9323 3.11111 20.367 3.11111 19.7777V8.66656C3.11111 8.07719 3.34524 7.51196 3.76199 7.09521C4.17874 6.67846 4.74397 6.44434 5.33334 6.44434H16.075C17.3022 6.44434 18.1111 7.25322 18.1111 8.48045V19.7777Z" fill="#B79DFF"/>
<path d="M5.33332 5.33333C4.39554 5.33333 4.37165 4.26556 4.77776 3.80556C5.23999 3.28278 5.95832 3.11111 7.24332 3.11111H8.1111V2H6.60054C4.39554 2 2.55554 3.38889 2.55554 4.98611V19.7778C2.55554 20.3671 2.78967 20.9324 3.20642 21.3491C3.62316 21.7659 4.18839 22 4.77776 22H5.88888V5.33333H5.33332Z" fill="#926CFD"/>
</g>
<defs>
<clipPath id="clip0_1_16391">
<rect width="20" height="20" fill="white" transform="translate(2 2)"/>
</clipPath>
</defs>
</svg>
