<svg width="61" height="26" viewBox="0 0 61 26" fill="none" xmlns="http://www.w3.org/2000/svg">
<g filter="url(#filter0_i_1_6479)">
<rect width="60.6" height="25.8" rx="12.9" fill="url(#paint0_linear_1_6479)"/>
<g filter="url(#filter1_i_1_6479)">
<path d="M17.579 8.35171C17.8612 7.99475 17.5952 7.48341 17.1262 7.48341H13.4883C13.3898 7.48269 13.2928 7.50733 13.2066 7.55495C13.1203 7.60257 13.0478 7.67158 12.9959 7.75533L10.2432 12.3357C10.026 12.6964 10.299 13.1465 10.735 13.1465H12.5924L10.8428 17.5151C10.5899 18.0676 11.2734 18.573 11.7328 18.1732L18.8335 11.4544H15.1236L17.579 8.35171Z" fill="url(#paint1_linear_1_6479)"/>
</g>
<path d="M29.3125 17.4004H27.6875L23.7125 11.6504H23.6375V17.4004H21.7625V8.35039H23.4125L27.3625 14.1004H27.45V8.35039H29.3125V17.4004ZM30.8375 8.35039H36.9125V9.90039H32.7125V12.1004H36.6V13.6504H32.7125V15.8504H36.925V17.4004H30.8375V8.35039ZM37.8125 8.35039H39.8625L41.3875 14.6754H41.4625L43.125 8.35039H44.8875L46.55 14.6879H46.625L48.15 8.35039H50.2L47.6125 17.4004H45.775L44.05 11.4254H43.975L42.2375 17.4004H40.4L37.8125 8.35039Z" fill="white"/>
</g>
<defs>
<filter id="filter0_i_1_6479" x="0" y="0" width="63.0001" height="28.1998" filterUnits="userSpaceOnUse" color-interpolation-filters="sRGB">
<feFlood flood-opacity="0" result="BackgroundImageFix"/>
<feBlend mode="normal" in="SourceGraphic" in2="BackgroundImageFix" result="shape"/>
<feColorMatrix in="SourceAlpha" type="matrix" values="0 0 0 0 0 0 0 0 0 0 0 0 0 0 0 0 0 0 127 0" result="hardAlpha"/>
<feOffset dx="2.4" dy="2.4"/>
<feGaussianBlur stdDeviation="1.6"/>
<feComposite in2="hardAlpha" operator="arithmetic" k2="-1" k3="1"/>
<feColorMatrix type="matrix" values="0 0 0 0 1 0 0 0 0 1 0 0 0 0 1 0 0 0 0.1 0"/>
<feBlend mode="normal" in2="shape" result="effect1_innerShadow_1_6479"/>
</filter>
<filter id="filter1_i_1_6479" x="10.167" y="7.4834" width="9.4665" height="11.633" filterUnits="userSpaceOnUse" color-interpolation-filters="sRGB">
<feFlood flood-opacity="0" result="BackgroundImageFix"/>
<feBlend mode="normal" in="SourceGraphic" in2="BackgroundImageFix" result="shape"/>
<feColorMatrix in="SourceAlpha" type="matrix" values="0 0 0 0 0 0 0 0 0 0 0 0 0 0 0 0 0 0 127 0" result="hardAlpha"/>
<feOffset dx="0.8" dy="0.8"/>
<feGaussianBlur stdDeviation="0.4"/>
<feComposite in2="hardAlpha" operator="arithmetic" k2="-1" k3="1"/>
<feColorMatrix type="matrix" values="0 0 0 0 1 0 0 0 0 1 0 0 0 0 1 0 0 0 0.5 0"/>
<feBlend mode="normal" in2="shape" result="effect1_innerShadow_1_6479"/>
</filter>
<linearGradient id="paint0_linear_1_6479" x1="16.6745" y1="-5.375" x2="32.4461" y2="36.5841" gradientUnits="userSpaceOnUse">
<stop stop-color="#9924FF"/>
<stop offset="1" stop-color="#0031F5"/>
</linearGradient>
<linearGradient id="paint1_linear_1_6479" x1="14.5002" y1="7.4834" x2="14.5002" y2="18.3167" gradientUnits="userSpaceOnUse">
<stop stop-color="#FFEA00"/>
<stop offset="1" stop-color="#FF9500"/>
</linearGradient>
</defs>
</svg>
