<svg width="20" height="20" viewBox="0 0 20 20" fill="none" xmlns="http://www.w3.org/2000/svg">
<path d="M10 0C10.9517 0 11.7241 0.772414 11.7241 1.72414V8.27586H18.2759C18.7331 8.27586 19.1717 8.45751 19.495 8.78085C19.8184 9.10419 20 9.54273 20 10C20 10.4573 19.8184 10.8958 19.495 11.2191C19.1717 11.5425 18.7331 11.7241 18.2759 11.7241H11.7241V18.2759C11.7241 18.7331 11.5425 19.1717 11.2191 19.495C10.8958 19.8184 10.4573 20 10 20C9.54273 20 9.10419 19.8184 8.78085 19.495C8.45751 19.1717 8.27586 18.7331 8.27586 18.2759V11.7241H1.72414C1.26687 11.7241 0.828327 11.5425 0.504988 11.2191C0.18165 10.8958 0 10.4573 0 10C0 9.54273 0.18165 9.10419 0.504988 8.78085C0.828327 8.45751 1.26687 8.27586 1.72414 8.27586H8.27586V1.72414C8.27586 0.772414 9.04828 0 10 0Z" fill="#C8C8C8"/>
</svg>
