<svg width="10" height="12" viewBox="0 0 10 12" fill="none" xmlns="http://www.w3.org/2000/svg">
<path d="M5.81543 7.30957L6.84082 8.63525C7.19727 8.29346 7.47314 7.854 7.66846 7.31689C7.86865 6.77979 7.96875 6.15723 7.96875 5.44922C7.96875 4.60938 7.83203 3.8916 7.55859 3.2959C7.28516 2.7002 6.90674 2.24854 6.42334 1.94092C5.94482 1.6333 5.40039 1.47949 4.79004 1.47949C4.1748 1.47949 3.62549 1.6333 3.14209 1.94092C2.65869 2.24854 2.28027 2.7002 2.00684 3.2959C1.7334 3.8916 1.59668 4.60938 1.59668 5.44922C1.59668 6.28906 1.7334 7.00684 2.00684 7.60254C2.28027 8.19824 2.65869 8.6499 3.14209 8.95752C3.62549 9.26514 4.1748 9.41895 4.79004 9.41895C5.13184 9.41895 5.44922 9.37256 5.74219 9.27979L4.2334 7.30957H5.81543ZM9.56543 5.44922C9.56543 6.40625 9.40918 7.26074 9.09668 8.0127C8.78906 8.75977 8.35449 9.37012 7.79297 9.84375L9.22852 11.7041H7.57324L6.67969 10.5322C6.10352 10.7764 5.47363 10.8984 4.79004 10.8984C3.86719 10.8984 3.04199 10.6787 2.31445 10.2393C1.5918 9.79492 1.02539 9.1626 0.615234 8.34229C0.205078 7.51709 0 6.55273 0 5.44922C0 4.34082 0.205078 3.37646 0.615234 2.55615C1.02539 1.73096 1.5918 1.09863 2.31445 0.65918C3.04199 0.219727 3.86719 0 4.79004 0C5.70312 0 6.521 0.219727 7.24365 0.65918C7.97119 1.09863 8.54004 1.73096 8.9502 2.55615C9.36035 3.37646 9.56543 4.34082 9.56543 5.44922Z" fill="#FDBA00"/>
</svg>
