<svg width="18" height="18" viewBox="0 0 18 18" fill="none" xmlns="http://www.w3.org/2000/svg">
<path d="M5.0004 5.72792C4.92025 6.58292 4.864 8.09604 5.36884 8.7401C5.36884 8.7401 5.13118 7.07792 7.26165 4.99245C8.11946 4.15292 8.31775 3.01104 8.01822 2.15464C7.84806 1.66948 7.53728 1.2687 7.26728 0.988854C7.10978 0.824323 7.23071 0.552917 7.45993 0.562761C8.8465 0.624636 11.0937 1.00995 12.0485 3.4062C12.4676 4.45807 12.4985 5.5451 12.2988 6.65042C12.1723 7.35635 11.7223 8.92573 12.7488 9.11839C13.4815 9.2562 13.8359 8.67401 13.9948 8.25495C14.0609 8.08057 14.2901 8.03698 14.4138 8.1762C15.6513 9.58385 15.7568 11.2418 15.5009 12.6692C15.0059 15.4282 12.2117 17.4364 9.43571 17.4364C5.9679 17.4364 3.20743 15.4521 2.49165 11.8606C2.20337 10.4107 2.34962 7.54198 4.58556 5.51698C4.7515 5.3651 5.0229 5.5001 5.0004 5.72792Z" fill="#F8312F"/>
<path d="M10.7031 10.244C9.42478 8.59872 9.99713 6.72137 10.3107 5.97325C10.3529 5.87481 10.2404 5.782 10.1518 5.84247C9.60197 6.21653 8.47557 7.09684 7.95103 8.33575C7.24088 10.0106 7.2915 10.8304 7.71197 11.8317C7.9651 12.435 7.67119 12.5629 7.52353 12.5854C7.3801 12.6079 7.24791 12.5123 7.14244 12.4125C6.83908 12.1211 6.62288 11.751 6.51806 11.3437C6.49556 11.2565 6.38166 11.2326 6.32963 11.3043C5.93588 11.8486 5.73197 12.7218 5.72213 13.3392C5.69119 15.2475 7.2676 16.7943 9.17447 16.7943C11.5778 16.7943 13.3285 14.1365 11.9476 11.9147C11.5468 11.2678 11.1699 10.8445 10.7031 10.244Z" fill="#FCD53F"/>
</svg>
