<svg width="172" height="56" viewBox="0 0 172 56" fill="none" xmlns="http://www.w3.org/2000/svg">
<g clip-path="url(#clip0_6906_735)">
<mask id="mask0_6906_735" style="mask-type:luminance" maskUnits="userSpaceOnUse" x="0" y="0" width="172" height="56">
<path d="M172 0H0V56H172V0Z" fill="white"/>
</mask>
<g mask="url(#mask0_6906_735)">
<path d="M45.8801 47.3016C47.3328 47.3016 48.6284 46.63 49.4866 45.5745C53.3455 40.7709 55.6507 34.6578 55.6507 27.9972C55.6451 12.5366 43.1879 0 27.8254 0C12.4627 0 0 12.5366 0 28.0028C0 36.2665 3.55599 43.6948 9.20967 48.8201C10.0342 49.5596 11.1223 50.0111 12.317 50.0111H13.5621C17.5107 50.0111 20.8816 52.5003 22.2165 56.0056C23.1476 51.0497 27.472 47.3073 32.6657 47.3073H45.8801V47.3016Z" fill="#FDD000"/>
<path d="M110.611 33.2637V36.7351H127.758V44.423H132.166V33.2637H110.611Z" fill="#383838"/>
<path d="M137.231 20.6252H132.166V13.9194H127.758V32.2135H132.166V24.1474H137.231V20.6252Z" fill="#383838"/>
<path d="M122.749 22.8946C122.749 21.1278 122.065 19.5079 120.904 18.2096H124.354V14.7494H115.53V12.2207H111.122V14.7494H102.529V18.2096H105.704C104.571 19.4966 103.904 21.0996 103.904 22.8946C103.904 27.3933 108.121 30.7293 113.327 30.7293C118.531 30.7293 122.749 27.2748 122.749 22.8946ZM108.166 22.8551C108.166 20.157 110.471 18.3733 113.321 18.3733C116.17 18.3733 118.475 20.1852 118.475 22.8551C118.475 25.525 116.165 27.4103 113.321 27.4103C110.477 27.4103 108.166 25.5532 108.166 22.8551Z" fill="#383838"/>
<path d="M97.4086 13H93V43.5033H97.4086V13Z" fill="#383838"/>
<path d="M86.5891 14.2695H70.0263V17.7862H81.373L68.7363 32.8291L72.0736 35.6174L86.5891 17.7862V14.2695Z" fill="#383838"/>
<path d="M77.7725 30.3905L85.8884 35.6173L88.2384 31.8693L80.4927 27.0488L77.7725 30.3905Z" fill="#383838"/>
<path d="M146.306 30.2269L154.68 35.6175L157.024 31.8695L148.807 26.7441L146.306 30.2269Z" fill="#383838"/>
<path d="M151.663 13.8179L137.45 32.9982L141 35.6172L154.922 16.2168L151.663 13.8179Z" fill="#383838"/>
<path d="M172 21.3873H166.577V13.9194H162.174V44.4227H166.577V24.9038H172V21.3873Z" fill="#383838"/>
</g>
</g>
<defs>
<clipPath id="clip0_6906_735">
<rect width="172" height="56" fill="white"/>
</clipPath>
</defs>
</svg>
