<svg width="28" height="28" viewBox="0 0 28 28" fill="none" xmlns="http://www.w3.org/2000/svg">
<path d="M21.777 26.2498H6.223C5.98162 26.252 5.74219 26.2064 5.51847 26.1157C5.29476 26.0251 5.09118 25.8911 4.91943 25.7214C4.74769 25.5518 4.61118 25.3499 4.51774 25.1273C4.42431 24.9048 4.3758 24.6659 4.375 24.4245V13.1248L13.8924 10.4473L23.625 13.1248V24.4245C23.625 25.4273 22.8025 26.2498 21.777 26.2498Z" fill="#FCD53F"/>
<path d="M23.625 5.11627C23.625 2.15527 20.0856 0.648524 17.9673 2.69865L14 6.54427L10.0336 2.69865C7.91438 0.638899 4.375 2.15527 4.375 5.11627C4.375 6.16015 5.21238 7.00015 6.24925 7.00015L14 8.8989L21.7507 7.00015C22.2484 6.99669 22.7246 6.79679 23.0756 6.44397C23.4266 6.09115 23.6241 5.61396 23.625 5.11627Z" fill="#F8312F"/>
<path d="M24.2043 7H3.79487C3.15 7 2.625 7.525 2.625 8.17425V11.9507C2.625 12.6 3.15 13.125 3.79575 13.125H24.2043C24.85 13.125 25.375 12.6 25.375 11.9507V8.17425C25.375 7.525 24.85 7 24.2043 7Z" fill="#FFB02E"/>
<path d="M14.0044 2.625C12.5519 2.625 11.375 3.82375 11.375 5.3025V26.25H16.625V5.3025C16.6338 3.82375 15.4577 2.625 14.0044 2.625Z" fill="#CA0B4A"/>
</svg>
