<svg width="16" height="16" viewBox="0 0 16 16" fill="none" xmlns="http://www.w3.org/2000/svg">
<path d="M2 16H14C15.1046 16 16 15.1046 16 14V4.66667C16 4.23393 15.8596 3.81286 15.6 3.46667L13.6 0.8C13.2223 0.296388 12.6295 0 12 0H2C0.895431 0 0 0.895431 0 2V14C0 15.1046 0.895431 16 2 16Z" fill="#40C3FF"/>
<path d="M4.42041 10.667H3V14H13V12.667L4.42041 12.666V10.667ZM8.02698 10.333C7.88705 10.333 7.74849 10.3589 7.6192 10.4091C7.48992 10.4594 7.37246 10.533 7.27351 10.6259C7.17456 10.7187 7.09607 10.829 7.04252 10.9503C6.98897 11.0716 6.96141 11.2017 6.96141 11.333C6.96141 11.4643 6.98897 11.5944 7.04252 11.7157C7.09607 11.837 7.17456 11.9472 7.27351 12.0401C7.37246 12.133 7.48992 12.2066 7.6192 12.2569C7.74849 12.3071 7.88705 12.333 8.02698 12.333C8.30959 12.333 8.58062 12.2276 8.78046 12.0401C8.98029 11.8526 9.09256 11.5982 9.09256 11.333C9.09256 11.0678 8.98029 10.8134 8.78046 10.6259C8.58062 10.4384 8.30959 10.333 8.02698 10.333ZM8.02698 4.99999C7.32046 4.99999 6.64288 5.26339 6.1433 5.73223C5.64371 6.20107 5.36305 6.83695 5.36305 7.49999C5.36305 8.16303 5.64371 8.79892 6.1433 9.26776C6.64288 9.7366 7.32046 9.99999 8.02698 9.99999C8.7335 9.99999 9.41108 9.7366 9.91067 9.26776C10.4103 8.79892 10.6909 8.16303 10.6909 7.49999C10.6909 6.83695 10.4103 6.20107 9.91067 5.73223C9.41108 5.26339 8.7335 4.99999 8.02698 4.99999ZM8.02698 6.33299C8.35678 6.33299 8.67308 6.45594 8.90629 6.6748C9.13949 6.89365 9.27051 7.19048 9.27051 7.49999C9.27051 7.8095 9.13949 8.10633 8.90629 8.32518C8.67308 8.54404 8.35678 8.66699 8.02698 8.66699C7.69718 8.66699 7.38088 8.54404 7.14768 8.32518C6.91447 8.10633 6.78346 7.8095 6.78346 7.49999C6.78346 7.19048 6.91447 6.89365 7.14768 6.6748C7.38088 6.45594 7.69718 6.33299 8.02698 6.33299ZM8.73772 2H7.31624V3.333H3V4.66699H13V3.333H8.73665L8.73772 2Z" fill="white"/>
</svg>
