<svg width="16" height="16" viewBox="0 0 16 16" fill="none" xmlns="http://www.w3.org/2000/svg">
<path d="M2 16H14C15.1046 16 16 15.1046 16 14V4.66667C16 4.23393 15.8596 3.81286 15.6 3.46667L13.6 0.8C13.2223 0.296388 12.6295 0 12 0H2C0.895431 0 0 0.895431 0 2V14C0 15.1046 0.895431 16 2 16Z" fill="#F45757"/>
<path fill-rule="evenodd" clip-rule="evenodd" d="M2.33547 13.49C1.49563 12.4688 2.38871 11.2524 3.30279 10.7343C3.81044 10.4482 4.44257 10.2492 5.12495 10.0615C4.92189 10.4489 4.69784 10.8249 4.45382 11.1878C4.25306 11.2685 4.05748 11.3615 3.86818 11.4664C3.38677 11.7382 2.74339 12.2135 3.13857 12.8104C3.52325 13.3916 4.14338 12.7526 4.43583 12.4155C4.80925 12.034 5.23068 11.4318 5.6056 10.7711C6.00228 10.0728 6.36296 9.28437 6.7079 8.45091C7.01909 7.70004 7.29579 6.92665 7.50275 6.20582C7.71271 5.48499 7.85443 4.81748 7.90692 4.25433C7.94966 3.78654 7.92942 3.098 7.31453 3.1881C6.69965 3.2782 6.70715 3.99903 6.85337 4.56218C6.89636 4.72987 6.95035 4.90382 7.01534 5.08403C6.96935 5.29978 6.91361 5.52754 6.84812 5.76732C6.79313 5.96555 6.73314 6.16853 6.66815 6.37627C6.40355 5.85915 6.19418 5.31552 6.04352 4.7544C5.78107 3.74074 5.76982 2.32911 7.13082 2.03627C8.49181 1.74344 8.833 3.29022 8.74301 4.28136C8.66803 5.08478 8.44532 6.06841 8.10788 7.08208C8.32384 7.44024 8.5593 7.79916 8.809 8.14831C9.07145 8.51698 9.41639 8.89392 9.70133 9.22205C10.7061 9.14696 11.696 9.19652 12.4383 9.33693C13.4581 9.5299 14.3805 10.1704 13.8406 11.3943C13.2999 12.6182 11.9659 12.438 11.0811 11.8681C10.3431 11.3904 9.69566 10.7853 9.16893 10.081H9.16668C8.60739 9.24115 8.09422 8.37136 7.62947 7.47553C7.40751 8.14606 7.08208 9.04484 6.80463 9.64553C7.15931 9.56294 7.53199 9.49536 7.89942 9.43905C8.05014 9.69284 8.19412 9.94062 8.34184 10.1809C8.22436 10.1984 8.10188 10.2179 7.97441 10.2395C7.51299 10.3181 7.06058 10.4122 6.61716 10.5218C6.50518 10.737 6.39671 10.9493 6.29173 11.1585C5.91755 11.9004 5.57261 12.5852 5.14444 13.0732C4.45982 13.8541 3.17981 14.4924 2.33997 13.4712L2.33547 13.49ZM10.209 9.97591C10.6582 10.4354 11.0788 10.7868 11.4912 11.0572C11.9922 11.38 12.571 11.5685 12.841 11.0046C13.1162 10.4392 12.6078 10.1561 12.0761 10.051C11.552 9.95114 10.9289 9.94663 10.2015 9.97291L10.209 9.97591Z" fill="white"/>
</svg>
