<svg width="28" height="28" viewBox="0 0 28 28" fill="none" xmlns="http://www.w3.org/2000/svg">
<path d="M22.4828 10.0583C22.4828 5.25723 18.7143 1.36523 14.0656 1.36523C9.41695 1.36523 5.64844 5.25729 5.64844 10.0583C5.64844 12.2294 6.41915 14.2145 7.69331 15.7379H7.69326L9.53437 19.0753C10.0152 19.9657 10.1937 20.5405 10.9996 20.5405H17.0028C17.8087 20.5405 18.0458 19.9351 18.468 19.0753L20.438 15.7379H20.4378C21.712 14.2145 22.4828 12.2294 22.4828 10.0583Z" fill="#FFE46A"/>
<path d="M6.16882 11.117C6.16882 6.1557 9.90824 2.05523 14.7627 1.39799C14.5205 1.37635 14.2775 1.36542 14.0344 1.36523C9.3857 1.36523 5.61719 5.25729 5.61719 10.0583C5.61719 11.6382 6.02565 13.1194 6.73894 14.3961C6.3698 13.3707 6.16882 12.267 6.16882 11.117Z" fill="#FFF0B7"/>
<path d="M22.4824 10.0771C22.4824 8.35747 21.9988 6.75458 21.1646 5.40527C21.3432 6.10988 21.4336 6.83395 21.4335 7.56084C21.4335 13.2732 15.9025 17.9253 8.99316 18.1137L9.53402 19.0942C10.0149 19.9845 10.1934 20.5594 10.9992 20.5594H17.0025C17.8084 20.5594 18.0454 19.954 18.4677 19.0942L20.4376 15.7568H20.4375C21.7117 14.2333 22.4824 12.2482 22.4824 10.0771Z" fill="#FFDA00"/>
<path d="M17.6046 11.5499C17.6127 11.5427 17.6208 11.5362 17.629 11.5283C17.7814 11.3824 17.9069 11.1498 17.8019 10.934C17.371 10.0494 16.0535 9.76872 15.0935 10.0617C15.0449 10.0765 14.9977 10.0926 14.952 10.1101C14.4291 9.80476 13.7798 9.73137 13.2019 9.9149C13.1335 9.93652 13.0664 9.96197 13.0008 9.99113C12.6844 9.80629 12.3144 9.71409 11.9457 9.74974C11.1739 9.82439 10.5033 10.4503 10.3704 11.2127L10.3096 11.2504C10.8355 12.1003 12.2198 14.5355 12.3085 15.5834C12.4203 16.9054 12.3086 20.494 12.3075 20.5301L12.9634 20.5508C12.9681 20.4019 13.0775 16.8879 12.9624 15.5281C12.9111 14.9218 12.5401 13.9554 11.8596 12.6558C11.5421 12.0492 11.2337 11.5167 11.0471 11.2025C11.1761 10.7843 11.5726 10.4452 12.0088 10.403C12.1417 10.3901 12.2764 10.405 12.4054 10.4429C12.3568 10.505 12.3144 10.5716 12.2785 10.6418C12.0572 11.0758 12.1496 11.6206 12.4936 11.9092C12.6973 12.0801 12.9933 12.1431 13.2661 12.0733C13.5203 12.0083 13.7167 11.8413 13.805 11.6151C13.8844 11.4118 13.8777 11.177 13.785 10.9175C13.7313 10.7682 13.6567 10.6272 13.5635 10.4989C13.8112 10.4511 14.0668 10.4651 14.3078 10.5395C14.214 10.6475 14.1422 10.7678 14.095 10.8981C13.9942 11.177 14.0388 11.5085 14.2114 11.7633C14.3602 11.983 14.5864 12.1135 14.832 12.1216C14.8402 12.1219 14.8485 12.122 14.8566 12.122C15.0718 12.122 15.2761 12.0295 15.4342 11.8597C15.62 11.6603 15.7146 11.3834 15.6871 11.119C15.6697 10.951 15.6099 10.7866 15.5136 10.6341C16.1828 10.5125 16.8373 10.7386 17.1205 11.0818C16.9496 11.3661 16.5987 11.9628 16.2358 12.6559C15.5554 13.9555 15.1843 14.9219 15.1331 15.5282C15.018 16.888 15.1274 20.402 15.132 20.5509L15.7879 20.5302C15.7868 20.4941 15.6751 16.9058 15.7869 15.5835C15.8667 14.6401 16.9962 12.5732 17.6046 11.5499ZM13.1936 11.3765C13.1784 11.4156 13.1208 11.4331 13.1036 11.4375C13.0352 11.455 12.9578 11.4422 12.9153 11.4066C12.8051 11.3141 12.7812 11.1004 12.863 10.94C12.8898 10.8884 12.9239 10.8408 12.9642 10.7988C13.0523 10.8987 13.1223 11.0135 13.1669 11.1383C13.2033 11.24 13.213 11.3269 13.1936 11.3765ZM14.954 11.4122C14.9348 11.4328 14.8958 11.4665 14.8534 11.4656C14.808 11.4641 14.772 11.4208 14.7546 11.3951C14.7003 11.3149 14.6828 11.2022 14.7121 11.1212C14.7459 11.0277 14.8112 10.9512 14.8873 10.8896C14.9721 10.9854 15.0241 11.0883 15.0343 11.1868C15.0422 11.2617 15.0099 11.3523 14.954 11.4122Z" fill="#FAAF63"/>
<path d="M17.2773 22.0225H10.8223C10.4613 22.0225 10.166 22.3178 10.166 22.6787V23.0592C10.166 23.4201 10.4613 23.7154 10.8223 23.7154H12.9071C12.2854 23.9467 11.6291 24.4966 11.6291 25.1343V25.3903C12.128 25.951 12.5926 26.926 13.4776 26.926H14.6747C15.3719 26.926 15.8671 26.1734 16.4704 25.3903V25.1343C16.4704 24.4966 15.8442 23.9467 15.2374 23.7154H17.2773C17.6382 23.7154 17.9336 23.4201 17.9336 23.0592V22.6787C17.9336 22.3178 17.6382 22.0225 17.2773 22.0225Z" fill="#6B83A5"/>
<path d="M17.7413 22.023H10.3594C9.99844 22.023 9.70312 21.7277 9.70312 21.3668V20.9863C9.70312 20.6254 9.99844 20.3301 10.3594 20.3301H17.7413C18.1022 20.3301 18.3975 20.6254 18.3975 20.9863V21.3668C18.3975 21.7277 18.1022 22.023 17.7413 22.023ZM17.3581 24.7528V24.3723C17.3581 24.0114 17.0627 23.7161 16.7018 23.7161H11.3988C11.0379 23.7161 10.7426 24.0114 10.7426 24.3723V24.7528C10.7426 25.1137 11.0379 25.409 11.3988 25.409H16.7018C17.0627 25.409 17.3581 25.1137 17.3581 24.7528Z" fill="#ABBDDB"/>
</svg>
