<svg width="248" height="74" viewBox="0 0 248 74" fill="none" xmlns="http://www.w3.org/2000/svg">
<path d="M27.3923 9.50586C12.2665 9.50586 0 21.8181 0 37.0004C0 45.1173 3.50316 52.4127 9.06893 57.4405C9.87651 58.1635 10.9569 58.6126 12.1246 58.6126H13.3469C17.232 58.6126 20.5606 61.0554 21.8702 64.4949C22.7869 59.6313 27.0431 55.9508 32.1614 55.9508H45.17C46.5997 55.9508 47.8765 55.2936 48.7168 54.2529C52.5146 49.5317 54.7846 43.529 54.7846 36.9894C54.7955 21.8181 42.529 9.50586 27.3923 9.50586Z" fill="#FDD000"/>
<path d="M22.9951 38.0088V39.6409H31.0382V43.2338H33.1117V38.0088H22.9951Z" fill="white"/>
<path d="M35.4808 32.1047H33.1126V28.9609H31.0391V37.527H33.1126V33.7478H35.4808V32.1047Z" fill="white"/>
<path d="M28.6926 33.1669C28.6926 32.3344 28.3652 31.5786 27.8305 30.9761H29.4456V29.3549H25.3095V28.1719H23.236V29.3549H19.209V30.9761H20.7041C20.1694 31.5786 19.8529 32.3344 19.8529 33.1669C19.8529 35.2701 21.8282 36.8365 24.2727 36.8365C26.7173 36.8365 28.6926 35.2262 28.6926 33.1669ZM21.85 33.145C21.85 31.8853 22.9304 31.0418 24.2727 31.0418C25.6151 31.0418 26.6955 31.8853 26.6955 33.145C26.6955 34.4047 25.6151 35.281 24.2727 35.281C22.9304 35.281 21.85 34.4157 21.85 33.145Z" fill="white"/>
<path d="M16.9708 28.9609H14.9082V43.234H16.9708V28.9609Z" fill="white"/>
<path d="M11.722 29.125H3.95179V30.7681H9.27747L3.35156 37.8115L4.91216 39.115L11.722 30.7681V29.125Z" fill="white"/>
<path d="M7.58594 36.6719L11.3947 39.1146L12.4969 37.362L8.86279 35.1055L7.58594 36.6719Z" fill="white"/>
<path d="M39.7471 36.595L43.6758 39.1145L44.7672 37.3618L40.9148 34.9629L39.7471 36.595Z" fill="white"/>
<path d="M42.2579 28.917L35.5898 37.8883L37.2487 39.1152L43.7857 30.0343L42.2579 28.917Z" fill="white"/>
<path d="M51.7958 32.4553H49.253V28.9609H47.1904V43.234H49.253V34.0984H51.7958V32.4553Z" fill="white"/>
<path d="M113.314 21.1099L97.4219 30.6338L99.0723 33.4083L114.964 23.8844L113.314 21.1099Z" fill="#3E3A39"/>
<path d="M111.776 27.0823L122.897 33.7752L123.061 33.8738L124.72 31.1024L114.919 25.1982L111.776 27.0823Z" fill="#3E3A39"/>
<path d="M112.649 30.6973H109.43V34.9255H96.2246V38.1569H125.963V34.9255H112.649V30.6973Z" fill="#3E3A39"/>
<path d="M99.4775 43.1191H119.471V45.0689H99.4884V52.8572H122.679V49.9434H102.708V47.9936H122.69V40.1943H99.4775V43.1191Z" fill="#3E3A39"/>
<path d="M131.573 29.2079L131.584 38.946H154.709V35.7146H134.804V32.4394H154.251V22.8984H131.573V26.1299H151.032V29.2079H131.573Z" fill="#3E3A39"/>
<path d="M128.048 44.6203H141.307V52.8906H144.527V44.6203H157.786V41.3779H128.048V44.6203Z" fill="#3E3A39"/>
<path d="M170.66 22.6264L158.938 39.2197L161.564 41.0889L173.286 24.4956L170.66 22.6264Z" fill="#3E3A39"/>
<path d="M177.834 40.2272L177.965 40.3806L180.453 38.3322L172.083 28.123L170.151 30.8615L177.834 40.2272Z" fill="#3E3A39"/>
<path d="M186.271 21.9668V26.7866H179.963V30.0289H186.271V32.5374H179.963V35.7688H186.271V44.7621H189.49V21.9668H186.271Z" fill="#3E3A39"/>
<path d="M92.7878 21.9229H89.5684V52.7364H92.7878V21.9229Z" fill="#3E3A39"/>
<path d="M67.9272 36.7654H82.3218V33.534H67.9272V28.4404H82.3218V25.209H64.7842V46.4488H82.3218V43.2173H67.9272V36.7654Z" fill="#3E3A39"/>
<path d="M169.923 42.5605H166.703V52.8573H189.686V49.6259H169.923V42.5605Z" fill="#3E3A39"/>
<rect x="199.687" y="22.5" width="48" height="29" rx="14.5" fill="#FDD000"/>
<path d="M216.859 29.725C217.059 29.725 217.234 29.775 217.384 29.875C217.544 29.975 217.624 30.135 217.624 30.355V31.51H221.224C221.414 31.51 221.549 31.575 221.629 31.705C221.719 31.825 221.764 31.975 221.764 32.155C221.764 32.325 221.719 32.475 221.629 32.605C221.549 32.725 221.414 32.785 221.224 32.785H217.609V33.055C217.609 33.335 217.629 33.58 217.669 33.79C217.719 33.99 217.794 34.175 217.894 34.345C218.004 34.515 218.149 34.675 218.329 34.825C218.519 34.965 218.749 35.115 219.019 35.275C219.489 35.535 219.934 35.775 220.354 35.995C220.774 36.215 221.249 36.46 221.779 36.73C221.929 36.81 222.014 36.94 222.034 37.12C222.054 37.29 222.024 37.45 221.944 37.6C221.854 37.76 221.729 37.875 221.569 37.945C221.419 38.005 221.259 37.995 221.089 37.915C220.599 37.675 220.139 37.445 219.709 37.225C219.289 36.995 218.849 36.755 218.389 36.505C217.879 36.215 217.509 35.96 217.279 35.74C217.059 35.52 216.924 35.31 216.874 35.11H216.859C216.809 35.33 216.669 35.55 216.439 35.77C216.219 35.99 215.849 36.245 215.329 36.535C214.869 36.785 214.429 37.025 214.009 37.255C213.589 37.475 213.134 37.705 212.644 37.945C212.474 38.025 212.309 38.035 212.149 37.975C211.989 37.905 211.864 37.785 211.774 37.615C211.694 37.455 211.664 37.29 211.684 37.12C211.704 36.94 211.789 36.81 211.939 36.73C212.469 36.46 212.944 36.215 213.364 35.995C213.784 35.775 214.229 35.535 214.699 35.275C214.969 35.115 215.194 34.965 215.374 34.825C215.564 34.675 215.709 34.515 215.809 34.345C215.919 34.175 215.994 33.99 216.034 33.79C216.084 33.58 216.109 33.335 216.109 33.055V32.785H212.494C212.304 32.785 212.164 32.725 212.074 32.605C211.994 32.475 211.954 32.325 211.954 32.155C211.954 31.975 211.994 31.825 212.074 31.705C212.164 31.575 212.304 31.51 212.494 31.51H216.094V30.355C216.094 30.135 216.169 29.975 216.319 29.875C216.479 29.775 216.659 29.725 216.859 29.725ZM216.859 37.555C217.059 37.555 217.234 37.605 217.384 37.705C217.534 37.805 217.609 37.965 217.609 38.185V40.21H222.634C222.814 40.21 222.944 40.275 223.024 40.405C223.114 40.525 223.159 40.67 223.159 40.84C223.159 41.01 223.114 41.16 223.024 41.29C222.944 41.42 222.814 41.485 222.634 41.485H211.084C210.904 41.485 210.769 41.42 210.679 41.29C210.599 41.16 210.559 41.01 210.559 40.84C210.559 40.67 210.599 40.525 210.679 40.405C210.769 40.275 210.904 40.21 211.084 40.21H216.109V38.185C216.109 37.965 216.184 37.805 216.334 37.705C216.484 37.605 216.659 37.555 216.859 37.555ZM234.517 30.295C234.687 30.295 234.812 30.36 234.892 30.49C234.982 30.61 235.027 30.755 235.027 30.925C235.027 31.095 234.982 31.24 234.892 31.36C234.812 31.48 234.687 31.54 234.517 31.54H227.767C227.557 31.54 227.452 31.645 227.452 31.855V33.49C227.452 33.7 227.557 33.805 227.767 33.805H234.667C234.837 33.805 234.962 33.865 235.042 33.985C235.132 34.105 235.177 34.25 235.177 34.42C235.177 34.59 235.132 34.74 235.042 34.87C234.962 34.99 234.837 35.05 234.667 35.05H227.092C226.652 35.05 226.352 34.97 226.192 34.81C226.032 34.65 225.952 34.355 225.952 33.925V31.42C225.952 30.99 226.032 30.695 226.192 30.535C226.352 30.375 226.652 30.295 227.092 30.295H234.517ZM236.287 36.37C236.467 36.37 236.597 36.43 236.677 36.55C236.767 36.67 236.812 36.82 236.812 37C236.812 37.17 236.767 37.32 236.677 37.45C236.597 37.57 236.467 37.63 236.287 37.63H224.737C224.557 37.63 224.422 37.57 224.332 37.45C224.252 37.32 224.212 37.17 224.212 37C224.212 36.82 224.252 36.67 224.332 36.55C224.422 36.43 224.557 36.37 224.737 36.37H236.287ZM230.512 38.755C231.962 38.755 233.087 38.965 233.887 39.385C234.697 39.805 235.102 40.455 235.102 41.335C235.102 42.225 234.697 42.875 233.887 43.285C233.087 43.705 231.962 43.915 230.512 43.915C229.062 43.915 227.932 43.705 227.122 43.285C226.322 42.875 225.922 42.225 225.922 41.335C225.922 40.455 226.322 39.805 227.122 39.385C227.932 38.965 229.062 38.755 230.512 38.755ZM230.512 39.955C229.422 39.955 228.632 40.075 228.142 40.315C227.652 40.545 227.407 40.885 227.407 41.335C227.407 41.785 227.652 42.125 228.142 42.355C228.632 42.595 229.422 42.715 230.512 42.715C231.602 42.715 232.392 42.595 232.882 42.355C233.372 42.125 233.617 41.785 233.617 41.335C233.617 40.885 233.372 40.545 232.882 40.315C232.392 40.075 231.602 39.955 230.512 39.955Z" fill="#37373D"/>
</svg>
