<svg width="190" height="74" viewBox="0 0 190 74" fill="none" xmlns="http://www.w3.org/2000/svg">
<path d="M27.3923 9.50537C12.2665 9.50537 0 21.8177 0 36.9999C0 45.1168 3.50316 52.4122 9.06893 57.44C9.87651 58.163 10.9569 58.6121 12.1246 58.6121H13.3469C17.232 58.6121 20.5606 61.0549 21.8702 64.4944C22.7869 59.6308 27.0431 55.9503 32.1614 55.9503H45.17C46.5997 55.9503 47.8765 55.2931 48.7168 54.2524C52.5146 49.5313 54.7846 43.5285 54.7846 36.9889C54.7955 21.8177 42.529 9.50537 27.3923 9.50537Z" fill="#FDD000"/>
<path d="M22.9951 38.0078V39.64H31.0382V43.2329H33.1117V38.0078H22.9951Z" fill="white"/>
<path d="M35.4808 32.1033H33.1126V28.9595H31.0391V37.5255H33.1126V33.7464H35.4808V32.1033Z" fill="white"/>
<path d="M28.6926 33.1659C28.6926 32.3334 28.3652 31.5776 27.8305 30.9751H29.4456V29.3539H25.3095V28.1709H23.236V29.3539H19.209V30.9751H20.7041C20.1694 31.5776 19.8529 32.3334 19.8529 33.1659C19.8529 35.2691 21.8282 36.8355 24.2727 36.8355C26.7173 36.8355 28.6926 35.2253 28.6926 33.1659ZM21.85 33.144C21.85 31.8843 22.9304 31.0408 24.2727 31.0408C25.6151 31.0408 26.6955 31.8843 26.6955 33.144C26.6955 34.4037 25.6151 35.28 24.2727 35.28C22.9304 35.28 21.85 34.4147 21.85 33.144Z" fill="white"/>
<path d="M16.9708 28.9595H14.9082V43.2325H16.9708V28.9595Z" fill="white"/>
<path d="M11.722 29.124H3.95179V30.7671H9.27747L3.35156 37.8105L4.91216 39.1141L11.722 30.7671V29.124Z" fill="white"/>
<path d="M7.58594 36.6714L11.3947 39.1141L12.4969 37.3615L8.86279 35.105L7.58594 36.6714Z" fill="white"/>
<path d="M39.7471 36.5945L43.6758 39.114L44.7672 37.3613L40.9148 34.9624L39.7471 36.5945Z" fill="white"/>
<path d="M42.2579 28.9155L35.5898 37.8868L37.2487 39.1137L43.7857 30.0328L42.2579 28.9155Z" fill="white"/>
<path d="M51.7958 32.4538H49.253V28.9595H47.1904V43.2325H49.253V34.0969H51.7958V32.4538Z" fill="white"/>
<path d="M113.314 21.1094L97.4219 30.6333L99.0723 33.4078L114.964 23.884L113.314 21.1094Z" fill="#3E3A39"/>
<path d="M111.776 27.0823L122.897 33.7752L123.061 33.8738L124.72 31.1024L114.919 25.1982L111.776 27.0823Z" fill="#3E3A39"/>
<path d="M112.649 30.6968H109.43V34.925H96.2246V38.1564H125.963V34.925H112.649V30.6968Z" fill="#3E3A39"/>
<path d="M99.4775 43.1191H119.471V45.0689H99.4884V52.8572H122.679V49.9434H102.708V47.9936H122.69V40.1943H99.4775V43.1191Z" fill="#3E3A39"/>
<path d="M131.573 29.2074L131.584 38.9455H154.709V35.7141H134.804V32.4389H154.251V22.8979H131.573V26.1294H151.032V29.2074H131.573Z" fill="#3E3A39"/>
<path d="M128.048 44.6193H141.307V52.8896H144.527V44.6193H157.786V41.377H128.048V44.6193Z" fill="#3E3A39"/>
<path d="M170.66 22.6259L158.938 39.2192L161.564 41.0884L173.286 24.4951L170.66 22.6259Z" fill="#3E3A39"/>
<path d="M177.834 40.2267L177.965 40.3801L180.453 38.3317L172.083 28.1226L170.151 30.8611L177.834 40.2267Z" fill="#3E3A39"/>
<path d="M186.271 21.9668V26.7866H179.963V30.0289H186.271V32.5374H179.963V35.7688H186.271V44.7621H189.49V21.9668H186.271Z" fill="#3E3A39"/>
<path d="M92.7878 21.9229H89.5684V52.7364H92.7878V21.9229Z" fill="#3E3A39"/>
<path d="M67.9272 36.7654H82.3218V33.534H67.9272V28.4404H82.3218V25.209H64.7842V46.4488H82.3218V43.2173H67.9272V36.7654Z" fill="#3E3A39"/>
<path d="M169.923 42.5601H166.703V52.8568H189.686V49.6254H169.923V42.5601Z" fill="#3E3A39"/>
</svg>
