<svg width="248" height="74" viewBox="0 0 248 74" fill="none" xmlns="http://www.w3.org/2000/svg">
<path d="M27.3923 9.50586C12.2665 9.50586 0 21.8181 0 37.0004C0 45.1173 3.50316 52.4127 9.06893 57.4405C9.87651 58.1635 10.9569 58.6126 12.1246 58.6126H13.3469C17.232 58.6126 20.5606 61.0554 21.8702 64.4949C22.7869 59.6313 27.0431 55.9508 32.1614 55.9508H45.17C46.5997 55.9508 47.8765 55.2936 48.7168 54.2529C52.5146 49.5317 54.7846 43.529 54.7846 36.9894C54.7955 21.8181 42.529 9.50586 27.3923 9.50586Z" fill="#FDD000"/>
<path d="M22.9952 38.0088V39.6409H31.0383V43.2338H33.1118V38.0088H22.9952Z" fill="white"/>
<path d="M35.48 32.1047H33.1119V28.9609H31.0383V37.527H33.1119V33.7478H35.48V32.1047Z" fill="white"/>
<path d="M28.6922 33.1669C28.6922 32.3344 28.3648 31.5786 27.8301 30.9761H29.4453V29.3549H25.3091V28.1719H23.2356V29.3549H19.2086V30.9761H20.7037C20.169 31.5786 19.8525 32.3344 19.8525 33.1669C19.8525 35.2701 21.8278 36.8365 24.2724 36.8365C26.7169 36.8365 28.6922 35.2262 28.6922 33.1669ZM21.8496 33.145C21.8496 31.8853 22.93 31.0418 24.2724 31.0418C25.6147 31.0418 26.6951 31.8853 26.6951 33.145C26.6951 34.4047 25.6147 35.281 24.2724 35.281C22.93 35.281 21.8496 34.4157 21.8496 33.145Z" fill="white"/>
<path d="M16.9709 28.9609H14.9083V43.234H16.9709V28.9609Z" fill="white"/>
<path d="M11.7218 29.125H3.95155V30.7681H9.27722L3.35132 37.8115L4.91192 39.115L11.7218 30.7681V29.125Z" fill="white"/>
<path d="M7.58557 36.6719L11.3943 39.1146L12.4965 37.362L8.86242 35.1055L7.58557 36.6719Z" fill="white"/>
<path d="M39.7466 36.595L43.6754 39.1145L44.7667 37.3618L40.9143 34.9629L39.7466 36.595Z" fill="white"/>
<path d="M42.2571 28.917L35.5891 37.8883L37.2479 39.1152L43.785 30.0343L42.2571 28.917Z" fill="white"/>
<path d="M51.7952 32.4553H49.2524V28.9609H47.1898V43.234H49.2524V34.0984H51.7952V32.4553Z" fill="white"/>
<path d="M113.314 21.1099L97.4222 30.6338L99.0726 33.4083L114.964 23.8844L113.314 21.1099Z" fill="#3E3A39"/>
<path d="M111.777 27.0823L122.897 33.7752L123.061 33.8738L124.72 31.1024L114.92 25.1982L111.777 27.0823Z" fill="#3E3A39"/>
<path d="M112.65 30.6973H109.43V34.9255H96.2253V38.1569H125.964V34.9255H112.65V30.6973Z" fill="#3E3A39"/>
<path d="M99.478 43.1191H119.471V45.0689H99.4889V52.8572H122.68V49.9434H102.708V47.9936H122.691V40.1943H99.478V43.1191Z" fill="#3E3A39"/>
<path d="M131.574 29.2079L131.585 38.946H154.71V35.7146H134.804V32.4394H154.252V22.8984H131.574V26.1299H151.032V29.2079H131.574Z" fill="#3E3A39"/>
<path d="M128.049 44.6203H141.308V52.8906H144.528V44.6203H157.787V41.3779H128.049V44.6203Z" fill="#3E3A39"/>
<path d="M170.661 22.6264L158.938 39.2197L161.564 41.0889L173.287 24.4956L170.661 22.6264Z" fill="#3E3A39"/>
<path d="M177.835 40.2272L177.966 40.3806L180.454 38.3322L172.084 28.123L170.152 30.8615L177.835 40.2272Z" fill="#3E3A39"/>
<path d="M186.271 21.9668V26.7866H179.963V30.0289H186.271V32.5374H179.963V35.7688H186.271V44.7621H189.491V21.9668H186.271Z" fill="#3E3A39"/>
<path d="M92.7881 21.9229H89.5687V52.7364H92.7881V21.9229Z" fill="#3E3A39"/>
<path d="M67.9277 36.7654H82.3223V33.534H67.9277V28.4404H82.3223V25.209H64.7847V46.4488H82.3223V43.2173H67.9277V36.7654Z" fill="#3E3A39"/>
<path d="M169.923 42.5605H166.703V52.8573H189.687V49.6259H169.923V42.5605Z" fill="#3E3A39"/>
<rect x="199.687" y="22.5" width="48" height="29" rx="14.5" fill="#79EBBB"/>
<path d="M221.089 30.325C221.269 30.325 221.399 30.39 221.479 30.52C221.569 30.64 221.614 30.785 221.614 30.955C221.614 31.125 221.569 31.275 221.479 31.405C221.399 31.525 221.269 31.585 221.089 31.585H217.624V31.81C217.624 32.11 217.719 32.375 217.909 32.605C218.099 32.825 218.449 33.035 218.959 33.235C219.939 33.615 220.834 33.945 221.644 34.225C221.814 34.275 221.924 34.385 221.974 34.555C222.034 34.725 222.034 34.885 221.974 35.035C221.904 35.205 221.799 35.33 221.659 35.41C221.519 35.48 221.354 35.485 221.164 35.425C220.784 35.305 220.379 35.165 219.949 35.005C219.529 34.845 219.094 34.675 218.644 34.495C218.324 34.375 218.054 34.26 217.834 34.15C217.624 34.03 217.449 33.92 217.309 33.82C217.179 33.72 217.079 33.625 217.009 33.535C216.949 33.435 216.904 33.34 216.874 33.25H216.859C216.829 33.34 216.779 33.435 216.709 33.535C216.639 33.635 216.534 33.74 216.394 33.85C216.264 33.95 216.089 34.06 215.869 34.18C215.659 34.29 215.394 34.405 215.074 34.525C214.624 34.705 214.184 34.875 213.754 35.035C213.334 35.195 212.939 35.335 212.569 35.455C212.369 35.515 212.199 35.505 212.059 35.425C211.919 35.345 211.814 35.22 211.744 35.05C211.684 34.9 211.679 34.74 211.729 34.57C211.779 34.39 211.894 34.275 212.074 34.225C212.884 33.945 213.779 33.615 214.759 33.235C215.269 33.035 215.619 32.825 215.809 32.605C215.999 32.375 216.094 32.11 216.094 31.81V31.585H212.629C212.449 31.585 212.314 31.525 212.224 31.405C212.144 31.275 212.104 31.125 212.104 30.955C212.104 30.785 212.144 30.64 212.224 30.52C212.314 30.39 212.449 30.325 212.629 30.325H221.089ZM222.649 36.25C222.819 36.25 222.944 36.315 223.024 36.445C223.114 36.565 223.159 36.71 223.159 36.88C223.159 37.05 223.114 37.2 223.024 37.33C222.944 37.45 222.819 37.51 222.649 37.51H217.594V39.535H216.124V37.51H211.069C210.899 37.51 210.769 37.45 210.679 37.33C210.599 37.2 210.559 37.05 210.559 36.88C210.559 36.71 210.599 36.565 210.679 36.445C210.769 36.315 210.899 36.25 211.069 36.25H222.649ZM216.859 38.755C218.309 38.755 219.434 38.965 220.234 39.385C221.044 39.805 221.449 40.455 221.449 41.335C221.449 42.225 221.044 42.875 220.234 43.285C219.434 43.705 218.309 43.915 216.859 43.915C215.409 43.915 214.279 43.705 213.469 43.285C212.669 42.875 212.269 42.225 212.269 41.335C212.269 40.455 212.669 39.805 213.469 39.385C214.279 38.965 215.409 38.755 216.859 38.755ZM216.859 39.955C215.769 39.955 214.979 40.075 214.489 40.315C213.999 40.545 213.754 40.885 213.754 41.335C213.754 41.785 213.999 42.125 214.489 42.355C214.979 42.595 215.769 42.715 216.859 42.715C217.949 42.715 218.739 42.595 219.229 42.355C219.719 42.125 219.964 41.785 219.964 41.335C219.964 40.885 219.719 40.545 219.229 40.315C218.739 40.075 217.949 39.955 216.859 39.955ZM228.277 33.295C229.277 33.295 230.057 33.51 230.617 33.94C231.187 34.37 231.472 34.955 231.472 35.695C231.472 36.435 231.187 37.02 230.617 37.45C230.057 37.88 229.277 38.095 228.277 38.095C227.277 38.095 226.492 37.88 225.922 37.45C225.362 37.02 225.082 36.435 225.082 35.695C225.082 34.955 225.362 34.37 225.922 33.94C226.492 33.51 227.277 33.295 228.277 33.295ZM228.277 29.68C228.477 29.68 228.652 29.73 228.802 29.83C228.952 29.93 229.027 30.09 229.027 30.31V31.255H231.712C231.892 31.255 232.022 31.32 232.102 31.45C232.192 31.58 232.237 31.73 232.237 31.9C232.237 32.07 232.192 32.22 232.102 32.35C232.022 32.47 231.892 32.53 231.712 32.53H224.692C224.512 32.53 224.377 32.47 224.287 32.35C224.207 32.22 224.167 32.07 224.167 31.9C224.167 31.73 224.207 31.58 224.287 31.45C224.377 31.32 224.512 31.255 224.692 31.255H227.527V30.31C227.527 30.09 227.602 29.93 227.752 29.83C227.912 29.73 228.087 29.68 228.277 29.68ZM228.277 34.465C227.677 34.465 227.217 34.58 226.897 34.81C226.587 35.04 226.432 35.335 226.432 35.695C226.432 36.055 226.587 36.35 226.897 36.58C227.217 36.81 227.677 36.925 228.277 36.925C228.887 36.925 229.347 36.81 229.657 36.58C229.967 36.35 230.122 36.055 230.122 35.695C230.122 35.335 229.967 35.04 229.657 34.81C229.347 34.58 228.887 34.465 228.277 34.465ZM234.127 29.83C234.327 29.83 234.502 29.88 234.652 29.98C234.802 30.08 234.877 30.24 234.877 30.46V33.355H236.542C236.732 33.355 236.867 33.42 236.947 33.55C237.037 33.68 237.082 33.83 237.082 34C237.082 34.18 237.037 34.335 236.947 34.465C236.867 34.595 236.732 34.66 236.542 34.66H234.877V37.87C234.877 38.08 234.802 38.235 234.652 38.335C234.502 38.435 234.327 38.485 234.127 38.485C233.937 38.485 233.767 38.435 233.617 38.335C233.467 38.235 233.392 38.08 233.392 37.87V30.46C233.392 30.24 233.467 30.08 233.617 29.98C233.767 29.88 233.937 29.83 234.127 29.83ZM233.722 39.145C234.162 39.145 234.462 39.225 234.622 39.385C234.792 39.545 234.877 39.84 234.877 40.27V43.15C234.877 43.37 234.802 43.53 234.652 43.63C234.502 43.73 234.327 43.78 234.127 43.78C233.937 43.78 233.767 43.73 233.617 43.63C233.467 43.53 233.392 43.37 233.392 43.15V40.72C233.392 40.52 233.287 40.42 233.077 40.42H226.537C226.347 40.42 226.207 40.36 226.117 40.24C226.037 40.11 225.997 39.96 225.997 39.79C225.997 39.62 226.037 39.47 226.117 39.34C226.207 39.21 226.347 39.145 226.537 39.145H233.722Z" fill="#37373D"/>
</svg>
