<svg width="14" height="14" viewBox="0 0 14 14" fill="none" xmlns="http://www.w3.org/2000/svg">
<g clip-path="url(#clip0_6906_371)">
<path fill-rule="evenodd" clip-rule="evenodd" d="M6.12617 0.5C6.58217 0.5 7.03117 0.568 7.46017 0.697C7.14777 1.2667 6.98875 1.90779 6.9987 2.55745C7.00865 3.2071 7.18721 3.84302 7.51691 4.40289C7.8466 4.96276 8.3161 5.42737 8.87939 5.75117C9.44269 6.07497 10.0804 6.24687 10.7302 6.25V8.477C10.7302 8.56835 10.7482 8.65881 10.7832 8.7432C10.8182 8.82758 10.8694 8.90424 10.9341 8.96879C10.9987 9.03334 11.0755 9.08452 11.1599 9.11938C11.2443 9.15425 11.3348 9.17213 11.4262 9.172C11.6251 9.172 11.8158 9.25102 11.9565 9.39167C12.0972 9.53232 12.1762 9.72309 12.1762 9.922C12.1762 10.1209 12.0972 10.3117 11.9565 10.4523C11.8158 10.593 11.6251 10.672 11.4262 10.672H0.826172C0.627259 10.672 0.436494 10.593 0.295842 10.4523C0.155189 10.3117 0.0761719 10.1209 0.0761719 9.922C0.0761719 9.72309 0.155189 9.53232 0.295842 9.39167C0.436494 9.25102 0.627259 9.172 0.826172 9.172C0.917525 9.17213 1.00801 9.15425 1.09244 9.11938C1.17688 9.08452 1.25362 9.03334 1.31826 8.96879C1.3829 8.90424 1.43418 8.82758 1.46917 8.7432C1.50416 8.65881 1.52217 8.56835 1.52217 8.477V5.104C1.52217 3.88294 2.00723 2.7119 2.87065 1.84848C3.73407 0.985063 4.90512 0.5 6.12617 0.5ZM5.12617 12C4.92726 12 4.73649 12.079 4.59584 12.2197C4.45519 12.3603 4.37617 12.5511 4.37617 12.75C4.37617 12.9489 4.45519 13.1397 4.59584 13.2803C4.73649 13.421 4.92726 13.5 5.12617 13.5H7.12617C7.32508 13.5 7.51585 13.421 7.6565 13.2803C7.79715 13.1397 7.87617 12.9489 7.87617 12.75C7.87617 12.5511 7.79715 12.3603 7.6565 12.2197C7.51585 12.079 7.32508 12 7.12617 12H5.12617Z" fill="#FF9240"/>
<path d="M10.749 5C11.4121 5 12.0479 4.73661 12.5168 4.26777C12.9856 3.79893 13.249 3.16304 13.249 2.5C13.249 1.83696 12.9856 1.20107 12.5168 0.732233C12.0479 0.263392 11.4121 0 10.749 0C10.086 0 9.4501 0.263392 8.98126 0.732233C8.51242 1.20107 8.24902 1.83696 8.24902 2.5C8.24902 3.16304 8.51242 3.79893 8.98126 4.26777C9.4501 4.73661 10.086 5 10.749 5Z" fill="#FF9240"/>
</g>
<defs>
<clipPath id="clip0_6906_371">
<rect width="14" height="14" fill="white"/>
</clipPath>
</defs>
</svg>
