<svg width="34" height="34" viewBox="0 0 34 34" fill="none" xmlns="http://www.w3.org/2000/svg">
<rect width="34" height="34" rx="12" fill="white" fill-opacity="0.3"/>
<rect x="0.5" y="0.5" width="33" height="33" rx="11.5" stroke="white" stroke-opacity="0.6"/>
<path d="M19.0625 9H14.9368L14.4635 11.3542C14.0717 11.5288 13.6991 11.7432 13.3517 11.9942L11.0621 11.224L9 14.776L10.8148 16.3615C10.771 16.786 10.771 17.214 10.8148 17.6385L9 19.224L11.0628 22.776L13.3517 22.0065C13.6969 22.2553 14.0685 22.4705 14.4635 22.6458L14.9368 25H19.0625L19.5357 22.6458C19.9276 22.4712 20.3002 22.2568 20.6476 22.0058L22.9372 22.776L25 19.224L23.1844 17.6385C23.2283 17.214 23.2283 16.786 23.1844 16.3615L24.9993 14.776L22.9365 11.224L20.6483 11.9935C20.3009 11.7428 19.9283 11.5285 19.5365 11.3542L19.0625 9ZM16.9996 19.9091C16.2236 19.9091 15.4794 19.6026 14.9307 19.057C14.3819 18.5115 14.0737 17.7715 14.0737 17C14.0737 16.2285 14.3819 15.4885 14.9307 14.943C15.4794 14.3974 16.2236 14.0909 16.9996 14.0909C17.7757 14.0909 18.5199 14.3974 19.0686 14.943C19.6173 15.4885 19.9256 16.2285 19.9256 17C19.9256 17.7715 19.6173 18.5115 19.0686 19.057C18.5199 19.6026 17.7757 19.9091 16.9996 19.9091Z" fill="white"/>
</svg>
