<svg width="28" height="28" viewBox="0 0 28 28" fill="none" xmlns="http://www.w3.org/2000/svg">
<path d="M22.9073 17.1604C23.3348 17.1604 23.7581 17.0762 24.153 16.9126C24.5479 16.749 24.9067 16.5093 25.209 16.207C25.5112 15.9048 25.751 15.5459 25.9146 15.151C26.0782 14.7561 26.1623 14.3328 26.1623 13.9054C26.1623 13.4779 26.0782 13.0547 25.9146 12.6598C25.751 12.2648 25.5112 11.906 25.209 11.6038C24.9067 11.3015 24.5479 11.0617 24.153 10.8982C23.7581 10.7346 23.3348 10.6504 22.9073 10.6504C22.0441 10.6504 21.2161 10.9933 20.6057 11.6038C19.9953 12.2142 19.6523 13.0421 19.6523 13.9054C19.6523 14.7687 19.9953 15.5966 20.6057 16.207C21.2161 16.8175 22.0441 17.1604 22.9073 17.1604Z" fill="#212121"/>
<path d="M9.62463 9.62535L10.2196 8.75035C11.3134 8.75035 12.3984 8.4966 13.3784 8.0241L18.8559 5.3291V22.4966L13.3784 19.8016C12.3954 19.3187 11.3148 19.0673 10.2196 19.0666L9.62463 17.5004V9.62535ZM5.43863 25.3824H7.69088C8.27713 25.3824 8.74963 24.9099 8.74963 24.3236V17.4041H4.37988V24.3236C4.37988 24.9099 4.85238 25.3824 5.43863 25.3824Z" fill="#D3D3D3"/>
<path d="M21.0612 2.625C20.3488 2.625 19.6656 2.90801 19.1618 3.41178C18.658 3.91555 18.375 4.59881 18.375 5.31125V22.505C18.375 23.2174 18.658 23.9007 19.1618 24.4045C19.6656 24.9082 20.3488 25.1912 21.0612 25.1912C21.7737 25.1912 22.4569 24.9082 22.9607 24.4045C23.4645 23.9007 23.7475 23.2174 23.7475 22.505V5.31125C23.7459 4.59931 23.4623 3.91699 22.9589 3.41357C22.4555 2.91015 21.7732 2.62662 21.0612 2.625Z" fill="#F8312F"/>
<path d="M3.26112 8.75H10.5V19.0575H3.26112C2.42375 19.0575 1.75 18.4013 1.75 17.5963V10.22C1.75 9.40625 2.42375 8.75 3.26112 8.75Z" fill="#CA0B4A"/>
</svg>
