<svg width="38" height="31" viewBox="0 0 38 31" fill="none" xmlns="http://www.w3.org/2000/svg">
<g filter="url(#filter0_d_6906_441)">
<rect x="4" y="1" width="29.6406" height="20" rx="10" fill="#30D0E9"/>
<path d="M23.4541 6.27832C24.1498 6.27832 24.7424 6.40805 25.2295 6.6709C25.7156 6.92903 26.0803 7.28745 26.3223 7.74512H26.3232C26.5689 8.20192 26.6904 8.72466 26.6904 9.31152C26.6904 9.82145 26.5971 10.2837 26.4092 10.6973L26.3232 10.8711C26.0813 11.329 25.7157 11.6897 25.2295 11.9521C24.7424 12.215 24.1498 12.3447 23.4541 12.3447H21.625V15.5693H20.1289V6.27832H23.4541ZM21.625 11.0518H23.3145C23.9544 11.0518 24.4195 10.8923 24.7197 10.584C25.0261 10.2693 25.1816 9.84704 25.1816 9.31152C25.1816 8.77131 25.0277 8.34933 24.7256 8.03906C24.4254 7.73077 23.9588 7.57129 23.3145 7.57129H21.625V11.0518Z" fill="white" stroke="white" stroke-width="0.1"/>
<path d="M12.4463 6.27832V12.2568C12.4463 12.6636 12.5349 13.0254 12.7119 13.3428H12.7129C12.8941 13.6557 13.1492 13.9031 13.4795 14.085C13.8139 14.2625 14.2059 14.3525 14.6562 14.3525C15.1022 14.3525 15.4893 14.2624 15.8193 14.085C16.1499 13.903 16.403 13.6558 16.5801 13.3428H16.5811C16.7624 13.0253 16.8535 12.6637 16.8535 12.2568V6.27832H18.3496V12.3711C18.3496 12.9376 18.2314 13.4512 17.9941 13.9111L17.8857 14.1045C17.5801 14.6124 17.1451 15.0104 16.583 15.2979C16.0248 15.5812 15.3821 15.7217 14.6562 15.7217C13.9219 15.7217 13.2724 15.5812 12.71 15.2979C12.1479 15.0146 11.7138 14.6182 11.4082 14.1104C11.1027 13.5983 10.9502 13.0183 10.9502 12.3711V6.27832H12.4463Z" fill="white" stroke="white" stroke-width="0.1"/>
<path d="M19.596 23.6875C19.2513 24.1042 18.3894 24.1042 18.0446 23.6875L14.9417 19.9375C14.5969 19.5208 15.0278 19 15.7174 19L21.9232 19C22.6128 19 23.0437 19.5208 22.699 19.9375L19.596 23.6875Z" fill="#30D0E9"/>
</g>
<defs>
<filter id="filter0_d_6906_441" x="0" y="0" width="37.6406" height="31" filterUnits="userSpaceOnUse" color-interpolation-filters="sRGB">
<feFlood flood-opacity="0" result="BackgroundImageFix"/>
<feColorMatrix in="SourceAlpha" type="matrix" values="0 0 0 0 0 0 0 0 0 0 0 0 0 0 0 0 0 0 127 0" result="hardAlpha"/>
<feOffset dy="3"/>
<feGaussianBlur stdDeviation="2"/>
<feComposite in2="hardAlpha" operator="out"/>
<feColorMatrix type="matrix" values="0 0 0 0 0.341346 0 0 0 0 0.341346 0 0 0 0 0.341346 0 0 0 0.15 0"/>
<feBlend mode="normal" in2="BackgroundImageFix" result="effect1_dropShadow_6906_441"/>
<feBlend mode="normal" in="SourceGraphic" in2="effect1_dropShadow_6906_441" result="shape"/>
</filter>
</defs>
</svg>
